<svg width="478" height="125" viewBox="0 0 478 125" fill="none" xmlns="http://www.w3.org/2000/svg">
<rect width="477.037" height="124.444" rx="29.8148" fill="#3182F6"/>
<path d="M93.3772 46.7059H103.656C106.188 46.7059 108.452 47.1081 110.448 47.9125C112.474 48.6871 114.187 49.7746 115.588 51.1748C117.018 52.5751 118.105 54.2583 118.85 56.2246C119.624 58.191 120.012 60.3509 120.012 62.7045C120.012 65.0581 119.624 67.2181 118.85 69.1844C118.105 71.1507 117.018 72.834 115.588 74.2342C114.187 75.6345 112.474 76.7368 110.448 77.5412C108.452 78.3158 106.188 78.7031 103.656 78.7031H93.3772V46.7059ZM103.566 73.8767C107.171 73.8767 109.957 72.8936 111.923 70.9273C113.889 68.961 114.873 66.22 114.873 62.7045C114.873 59.2188 113.889 56.4928 111.923 54.5265C109.957 52.5304 107.171 51.5323 103.566 51.5323H98.4271V73.8767H103.566ZM133.706 56.0906C135.374 56.0906 136.908 56.3885 138.309 56.9844C139.709 57.5504 140.916 58.3548 141.929 59.3975C142.941 60.4403 143.731 61.6767 144.297 63.1067C144.863 64.5368 145.146 66.086 145.146 67.7544C145.146 69.4227 144.863 70.972 144.297 72.402C143.731 73.832 142.941 75.0684 141.929 76.1112C140.916 77.1539 139.709 77.9732 138.309 78.5691C136.908 79.1351 135.374 79.4181 133.706 79.4181C132.037 79.4181 130.503 79.1351 129.103 78.5691C127.703 77.9732 126.496 77.1539 125.483 76.1112C124.47 75.0684 123.681 73.832 123.115 72.402C122.548 70.972 122.265 69.4227 122.265 67.7544C122.265 66.086 122.548 64.5368 123.115 63.1067C123.681 61.6767 124.47 60.4403 125.483 59.3975C126.496 58.3548 127.703 57.5504 129.103 56.9844C130.503 56.3885 132.037 56.0906 133.706 56.0906ZM133.706 74.8152C134.54 74.8152 135.344 74.6513 136.119 74.3236C136.894 73.9959 137.579 73.5341 138.175 72.9383C138.8 72.3424 139.292 71.6125 139.649 70.7485C140.007 69.8547 140.186 68.8567 140.186 67.7544C140.186 66.652 140.007 65.6689 139.649 64.8049C139.292 63.9111 138.8 63.1663 138.175 62.5705C137.579 61.9746 136.894 61.5128 136.119 61.1851C135.344 60.8574 134.54 60.6935 133.706 60.6935C132.872 60.6935 132.067 60.8574 131.293 61.1851C130.518 61.5128 129.818 61.9746 129.192 62.5705C128.596 63.1663 128.12 63.9111 127.762 64.8049C127.405 65.6689 127.226 66.652 127.226 67.7544C127.226 68.8567 127.405 69.8547 127.762 70.7485C128.12 71.6125 128.596 72.3424 129.192 72.9383C129.818 73.5341 130.518 73.9959 131.293 74.3236C132.067 74.6513 132.872 74.8152 133.706 74.8152ZM146.156 56.8056H151.563L155.809 71.9551H155.987L160.903 56.8056H166.042L170.913 71.9551H171.092L175.293 56.8056H180.611L173.595 78.7031H168.366L163.406 63.3749H163.227L158.401 78.7031H153.172L146.156 56.8056ZM187.998 59.7551H188.266C188.921 58.7123 189.845 57.8483 191.037 57.1631C192.258 56.4481 193.629 56.0906 195.148 56.0906C197.919 56.0906 199.989 56.9248 201.36 58.5932C202.73 60.2317 203.415 62.4215 203.415 65.1624V78.7031H198.455V65.8327C198.455 63.926 198.008 62.6002 197.114 61.8554C196.25 61.0808 195.103 60.6935 193.673 60.6935C192.809 60.6935 192.05 60.8723 191.394 61.2298C190.739 61.5873 190.173 62.0789 189.696 62.7045C189.219 63.3004 188.862 64.0005 188.623 64.8049C188.385 65.5795 188.266 66.3988 188.266 67.2628V78.7031H183.305V56.8056H187.998V59.7551ZM208.225 78.7031V46.7059H213.185V78.7031H208.225ZM228.146 56.0906C229.814 56.0906 231.349 56.3885 232.749 56.9844C234.149 57.5504 235.356 58.3548 236.369 59.3975C237.382 60.4403 238.171 61.6767 238.737 63.1067C239.303 64.5368 239.586 66.086 239.586 67.7544C239.586 69.4227 239.303 70.972 238.737 72.402C238.171 73.832 237.382 75.0684 236.369 76.1112C235.356 77.1539 234.149 77.9732 232.749 78.5691C231.349 79.1351 229.814 79.4181 228.146 79.4181C226.477 79.4181 224.943 79.1351 223.543 78.5691C222.143 77.9732 220.936 77.1539 219.923 76.1112C218.91 75.0684 218.121 73.832 217.555 72.402C216.989 70.972 216.705 69.4227 216.705 67.7544C216.705 66.086 216.989 64.5368 217.555 63.1067C218.121 61.6767 218.91 60.4403 219.923 59.3975C220.936 58.3548 222.143 57.5504 223.543 56.9844C224.943 56.3885 226.477 56.0906 228.146 56.0906ZM228.146 74.8152C228.98 74.8152 229.784 74.6513 230.559 74.3236C231.334 73.9959 232.019 73.5341 232.615 72.9383C233.24 72.3424 233.732 71.6125 234.089 70.7485C234.447 69.8547 234.626 68.8567 234.626 67.7544C234.626 66.652 234.447 65.6689 234.089 64.8049C233.732 63.9111 233.24 63.1663 232.615 62.5705C232.019 61.9746 231.334 61.5128 230.559 61.1851C229.784 60.8574 228.98 60.6935 228.146 60.6935C227.312 60.6935 226.507 60.8574 225.733 61.1851C224.958 61.5128 224.258 61.9746 223.632 62.5705C223.036 63.1663 222.56 63.9111 222.202 64.8049C221.845 65.6689 221.666 66.652 221.666 67.7544C221.666 68.8567 221.845 69.8547 222.202 70.7485C222.56 71.6125 223.036 72.3424 223.632 72.9383C224.258 73.5341 224.958 73.9959 225.733 74.3236C226.507 74.6513 227.312 74.8152 228.146 74.8152ZM257.21 76.0218H256.941C256.286 76.8858 255.437 77.6753 254.394 78.3903C253.351 79.0755 252.026 79.4181 250.417 79.4181C249.255 79.4181 248.168 79.2245 247.155 78.8372C246.142 78.4797 245.263 77.9732 244.518 77.3178C243.773 76.6325 243.177 75.843 242.73 74.9493C242.313 74.0257 242.105 73.0127 242.105 71.9104C242.105 70.7485 242.328 69.7058 242.775 68.7822C243.252 67.8586 243.892 67.084 244.697 66.4584C245.531 65.8327 246.514 65.3561 247.646 65.0283C248.778 64.6708 250 64.4921 251.311 64.4921C252.771 64.4921 253.992 64.641 254.975 64.939C255.958 65.2071 256.703 65.4603 257.21 65.6987V64.8496C257.21 64.1942 257.061 63.5834 256.763 63.0173C256.495 62.4513 256.107 61.9746 255.601 61.5873C255.124 61.1702 254.573 60.8574 253.947 60.6488C253.322 60.4105 252.666 60.2913 251.981 60.2913C250.879 60.2913 249.881 60.5148 248.987 60.9617C248.123 61.3788 247.348 62.064 246.663 63.0173L242.73 60.4254C243.773 58.9953 245.069 57.9228 246.618 57.2078C248.168 56.463 249.925 56.0906 251.892 56.0906C255.139 56.0906 257.642 56.895 259.399 58.5038C261.187 60.1126 262.081 62.4066 262.081 65.3859V78.7031H257.21V76.0218ZM257.21 69.5866C256.554 69.1993 255.824 68.8865 255.02 68.6481C254.215 68.4098 253.292 68.2906 252.249 68.2906C250.7 68.2906 249.464 68.6481 248.54 69.3632C247.616 70.0782 247.155 70.9422 247.155 71.9551C247.155 72.4914 247.274 72.9681 247.512 73.3852C247.75 73.7725 248.048 74.1151 248.406 74.413C248.793 74.7109 249.225 74.9344 249.702 75.0833C250.208 75.2323 250.715 75.3068 251.221 75.3068C252.026 75.3068 252.785 75.1578 253.5 74.8599C254.245 74.5322 254.886 74.1151 255.422 73.6086C255.958 73.0723 256.39 72.4616 256.718 71.7764C257.046 71.0911 257.21 70.3612 257.21 69.5866ZM283.109 75.8877H282.841C282.245 76.8411 281.337 77.6753 280.115 78.3903C278.894 79.0755 277.434 79.4181 275.736 79.4181C274.335 79.4181 272.995 79.1351 271.714 78.5691C270.462 77.9732 269.36 77.1539 268.407 76.1112C267.453 75.0684 266.694 73.8469 266.128 72.4467C265.561 71.0166 265.278 69.4525 265.278 67.7544C265.278 66.0562 265.561 64.507 266.128 63.1067C266.694 61.6767 267.453 60.4403 268.407 59.3975C269.36 58.3548 270.462 57.5504 271.714 56.9844C272.995 56.3885 274.335 56.0906 275.736 56.0906C277.434 56.0906 278.894 56.4481 280.115 57.1631C281.337 57.8483 282.245 58.6676 282.841 59.621H283.109L282.841 56.5822V46.7059H287.802V78.7031H283.109V75.8877ZM276.674 74.8152C277.508 74.8152 278.313 74.6513 279.087 74.3236C279.892 73.9959 280.577 73.5341 281.143 72.9383C281.739 72.3424 282.215 71.6125 282.573 70.7485C282.931 69.8547 283.109 68.8567 283.109 67.7544C283.109 66.652 282.931 65.6689 282.573 64.8049C282.215 63.9111 281.739 63.1663 281.143 62.5705C280.577 61.9746 279.892 61.5128 279.087 61.1851C278.313 60.8574 277.508 60.6935 276.674 60.6935C275.81 60.6935 274.991 60.8574 274.216 61.1851C273.442 61.5128 272.756 61.9895 272.16 62.6151C271.594 63.211 271.133 63.9409 270.775 64.8049C270.418 65.6689 270.239 66.652 270.239 67.7544C270.239 68.8567 270.418 69.8398 270.775 70.7038C271.133 71.5678 271.594 72.3126 272.16 72.9383C272.756 73.5341 273.442 73.9959 274.216 74.3236C274.991 74.6513 275.81 74.8152 276.674 74.8152ZM308.34 78.7031V51.5323H299.402V46.7059H322.327V51.5323H313.389V78.7031H308.34ZM332.493 56.0906C334.161 56.0906 335.695 56.3885 337.095 56.9844C338.496 57.5504 339.702 58.3548 340.715 59.3975C341.728 60.4403 342.518 61.6767 343.084 63.1067C343.65 64.5368 343.933 66.086 343.933 67.7544C343.933 69.4227 343.65 70.972 343.084 72.402C342.518 73.832 341.728 75.0684 340.715 76.1112C339.702 77.1539 338.496 77.9732 337.095 78.5691C335.695 79.1351 334.161 79.4181 332.493 79.4181C330.824 79.4181 329.29 79.1351 327.89 78.5691C326.489 77.9732 325.283 77.1539 324.27 76.1112C323.257 75.0684 322.467 73.832 321.901 72.402C321.335 70.972 321.052 69.4227 321.052 67.7544C321.052 66.086 321.335 64.5368 321.901 63.1067C322.467 61.6767 323.257 60.4403 324.27 59.3975C325.283 58.3548 326.489 57.5504 327.89 56.9844C329.29 56.3885 330.824 56.0906 332.493 56.0906ZM332.493 74.8152C333.327 74.8152 334.131 74.6513 334.906 74.3236C335.68 73.9959 336.366 73.5341 336.961 72.9383C337.587 72.3424 338.079 71.6125 338.436 70.7485C338.794 69.8547 338.972 68.8567 338.972 67.7544C338.972 66.652 338.794 65.6689 338.436 64.8049C338.079 63.9111 337.587 63.1663 336.961 62.5705C336.366 61.9746 335.68 61.5128 334.906 61.1851C334.131 60.8574 333.327 60.6935 332.493 60.6935C331.658 60.6935 330.854 60.8574 330.079 61.1851C329.305 61.5128 328.605 61.9746 327.979 62.5705C327.383 63.1663 326.906 63.9111 326.549 64.8049C326.191 65.6689 326.013 66.652 326.013 67.7544C326.013 68.8567 326.191 69.8547 326.549 70.7485C326.906 71.6125 327.383 72.3424 327.979 72.9383C328.605 73.5341 329.305 73.9959 330.079 74.3236C330.854 74.6513 331.658 74.8152 332.493 74.8152ZM355.797 79.4181C354.456 79.4181 353.249 79.2394 352.177 78.8819C351.104 78.5244 350.166 78.0626 349.362 77.4965C348.557 76.9007 347.872 76.2303 347.306 75.4855C346.77 74.7407 346.352 73.9661 346.055 73.1617L350.523 71.2848C351.03 72.5659 351.76 73.5192 352.713 74.1449C353.667 74.7407 354.694 75.0386 355.797 75.0386C357.048 75.0386 358.031 74.7854 358.746 74.2789C359.461 73.7725 359.819 73.2064 359.819 72.5808C359.819 71.9551 359.551 71.4188 359.014 70.972C358.478 70.4953 357.465 70.0782 355.975 69.7207L352.847 68.961C352.162 68.812 351.462 68.5886 350.747 68.2906C350.062 67.9629 349.421 67.5607 348.825 67.084C348.229 66.5776 347.738 65.9817 347.351 65.2965C346.993 64.5815 346.814 63.7473 346.814 62.7939C346.814 61.7214 347.038 60.768 347.485 59.9338C347.961 59.0996 348.602 58.3995 349.406 57.8334C350.211 57.2674 351.134 56.8354 352.177 56.5375C353.249 56.2395 354.382 56.0906 355.573 56.0906C356.556 56.0906 357.495 56.1948 358.389 56.4034C359.312 56.6119 360.161 56.9248 360.936 57.3419C361.711 57.759 362.396 58.2952 362.992 58.9507C363.617 59.5763 364.109 60.3211 364.466 61.1851L360.087 63.0173C359.67 62.064 359.014 61.3788 358.121 60.9617C357.227 60.5148 356.318 60.2913 355.394 60.2913C354.977 60.2913 354.545 60.3509 354.099 60.4701C353.681 60.5595 353.294 60.7084 352.937 60.917C352.609 61.0957 352.326 61.3341 352.088 61.632C351.879 61.9299 351.775 62.2576 351.775 62.6151C351.775 63.211 352.028 63.6877 352.534 64.0452C353.071 64.3729 353.875 64.6708 354.948 64.939L358.299 65.7881C360.564 66.3541 362.217 67.2181 363.26 68.38C364.332 69.5121 364.869 70.8528 364.869 72.402C364.869 73.3554 364.645 74.2491 364.198 75.0833C363.781 75.9175 363.17 76.6623 362.366 77.3178C361.562 77.9732 360.593 78.4797 359.461 78.8372C358.359 79.2245 357.137 79.4181 355.797 79.4181ZM376.745 79.4181C375.404 79.4181 374.197 79.2394 373.125 78.8819C372.052 78.5244 371.114 78.0626 370.309 77.4965C369.505 76.9007 368.82 76.2303 368.254 75.4855C367.717 74.7407 367.3 73.9661 367.002 73.1617L371.471 71.2848C371.978 72.5659 372.708 73.5192 373.661 74.1449C374.614 74.7407 375.642 75.0386 376.745 75.0386C377.996 75.0386 378.979 74.7854 379.694 74.2789C380.409 73.7725 380.767 73.2064 380.767 72.5808C380.767 71.9551 380.498 71.4188 379.962 70.972C379.426 70.4953 378.413 70.0782 376.923 69.7207L373.795 68.961C373.11 68.812 372.41 68.5886 371.695 68.2906C371.01 67.9629 370.369 67.5607 369.773 67.084C369.177 66.5776 368.686 65.9817 368.298 65.2965C367.941 64.5815 367.762 63.7473 367.762 62.7939C367.762 61.7214 367.986 60.768 368.432 59.9338C368.909 59.0996 369.55 58.3995 370.354 57.8334C371.158 57.2674 372.082 56.8354 373.125 56.5375C374.197 56.2395 375.329 56.0906 376.521 56.0906C377.504 56.0906 378.443 56.1948 379.337 56.4034C380.26 56.6119 381.109 56.9248 381.884 57.3419C382.658 57.759 383.344 58.2952 383.939 58.9507C384.565 59.5763 385.057 60.3211 385.414 61.1851L381.035 63.0173C380.618 62.064 379.962 61.3788 379.068 60.9617C378.175 60.5148 377.266 60.2913 376.342 60.2913C375.925 60.2913 375.493 60.3509 375.046 60.4701C374.629 60.5595 374.242 60.7084 373.884 60.917C373.557 61.0957 373.274 61.3341 373.035 61.632C372.827 61.9299 372.723 62.2576 372.723 62.6151C372.723 63.211 372.976 63.6877 373.482 64.0452C374.019 64.3729 374.823 64.6708 375.895 64.939L379.247 65.7881C381.511 66.3541 383.165 67.2181 384.208 68.38C385.28 69.5121 385.816 70.8528 385.816 72.402C385.816 73.3554 385.593 74.2491 385.146 75.0833C384.729 75.9175 384.118 76.6623 383.314 77.3178C382.509 77.9732 381.541 78.4797 380.409 78.8372C379.307 79.2245 378.085 79.4181 376.745 79.4181Z" fill="white"/>
</svg>
