<svg width="1028" height="942" viewBox="0 0 1028 942" fill="none" xmlns="http://www.w3.org/2000/svg">
<rect width="1028" height="942" rx="141" fill="white"/>
<path d="M296.845 799.867V777.844C304.125 770.688 310.849 764.026 317.018 757.857C319.608 755.266 322.261 752.614 324.975 749.899C327.69 747.185 330.219 744.656 332.563 742.312C334.907 739.968 337.005 737.87 338.855 736.019C340.706 734.045 342.125 732.503 343.112 731.393C345.086 729.049 346.813 726.951 348.294 725.101C349.898 723.25 351.131 721.461 351.995 719.734C352.982 717.883 353.722 716.094 354.216 714.367C354.709 712.516 354.956 710.542 354.956 708.445C354.956 704.373 353.352 700.857 350.144 697.896C346.937 694.811 342.557 693.269 337.005 693.269C331.453 693.269 327.134 694.873 324.05 698.081C320.966 701.165 318.868 704.682 317.758 708.63L295.735 699.561C296.722 696.23 298.326 692.837 300.547 689.383C302.767 685.805 305.605 682.659 309.06 679.944C312.514 677.107 316.586 674.824 321.274 673.097C326.086 671.246 331.453 670.321 337.375 670.321C343.79 670.321 349.589 671.308 354.771 673.282C359.953 675.133 364.333 677.724 367.911 681.055C371.489 684.386 374.265 688.334 376.239 692.899C378.213 697.341 379.2 702.152 379.2 707.334C379.2 715.23 377.226 722.51 373.278 729.172C369.453 735.711 364.765 741.818 359.213 747.494L343.297 763.409C339.102 767.604 334.352 772.292 329.047 777.474L329.787 778.585H381.05V799.867H296.845ZM397.692 799.867V777.844C404.971 770.688 411.695 764.026 417.864 757.857C420.455 755.266 423.108 752.614 425.822 749.899C428.536 747.185 431.065 744.656 433.41 742.312C435.754 739.968 437.851 737.87 439.702 736.019C441.552 734.045 442.971 732.503 443.958 731.393C445.932 729.049 447.66 726.951 449.14 725.101C450.744 723.25 451.978 721.461 452.841 719.734C453.828 717.883 454.569 716.094 455.062 714.367C455.556 712.516 455.803 710.542 455.803 708.445C455.803 704.373 454.199 700.857 450.991 697.896C447.783 694.811 443.403 693.269 437.851 693.269C432.299 693.269 427.981 694.873 424.897 698.081C421.812 701.165 419.715 704.682 418.604 708.63L396.581 699.561C397.568 696.23 399.172 692.837 401.393 689.383C403.614 685.805 406.452 682.659 409.906 679.944C413.361 677.107 417.432 674.824 422.121 673.097C426.932 671.246 432.299 670.321 438.221 670.321C444.637 670.321 450.436 671.308 455.617 673.282C460.799 675.133 465.179 677.724 468.757 681.055C472.335 684.386 475.111 688.334 477.085 692.899C479.059 697.341 480.046 702.152 480.046 707.334C480.046 715.23 478.072 722.51 474.124 729.172C470.299 735.711 465.611 741.818 460.059 747.494L444.143 763.409C439.949 767.604 435.199 772.292 429.893 777.474L430.634 778.585H481.897V799.867H397.692ZM515.009 800.978C510.568 800.978 506.743 799.435 503.535 796.351C500.451 793.143 498.908 789.318 498.908 784.877C498.908 780.435 500.451 776.672 503.535 773.588C506.743 770.503 510.568 768.961 515.009 768.961C519.451 768.961 523.214 770.503 526.298 773.588C529.383 776.672 530.925 780.435 530.925 784.877C530.925 789.318 529.383 793.143 526.298 796.351C523.214 799.435 519.451 800.978 515.009 800.978ZM553.235 791.539L605.979 697.341L605.424 696.23H547.128L547.498 673.282H633.369V697.341L573.593 802.828L553.235 791.539ZM684.613 783.766C678.815 782.779 673.509 780.929 668.698 778.214C664.009 775.5 659.938 772.107 656.483 768.036C653.152 763.964 650.561 759.276 648.711 753.971C646.86 748.542 645.935 742.744 645.935 736.575C645.935 730.406 646.86 724.669 648.711 719.364C650.561 713.935 653.152 709.185 656.483 705.113C659.938 701.042 664.009 697.649 668.698 694.935C673.509 692.221 678.815 690.37 684.613 689.383V673.282H701.269V689.198C709.782 690.308 716.753 693.146 722.182 697.711C727.734 702.276 732.052 707.889 735.136 714.552L715.149 722.51C711.818 715.724 707.191 711.529 701.269 709.925V763.409C708.178 761.312 713.36 756.809 716.815 749.899L736.062 758.227C732.607 764.89 728.042 770.565 722.367 775.253C716.815 779.942 709.782 782.903 701.269 784.137V799.867H684.613V783.766ZM668.143 736.575C668.143 743.237 669.685 748.851 672.769 753.416C675.854 757.857 679.802 761.003 684.613 762.854V710.48C679.802 712.208 675.854 715.354 672.769 719.919C669.685 724.36 668.143 729.912 668.143 736.575Z" fill="black"/>
<path d="M344.383 631.463V592.749H331.648V585.872H364.313V592.749H351.578V631.463H344.383ZM378.797 599.244C381.174 599.244 383.361 599.668 385.356 600.517C387.351 601.324 389.07 602.47 390.513 603.955C391.957 605.441 393.082 607.203 393.888 609.24C394.695 611.278 395.098 613.485 395.098 615.863C395.098 618.24 394.695 620.447 393.888 622.485C393.082 624.522 391.957 626.284 390.513 627.77C389.07 629.256 387.351 630.423 385.356 631.272C383.361 632.078 381.174 632.482 378.797 632.482C376.42 632.482 374.234 632.078 372.239 631.272C370.244 630.423 368.524 629.256 367.081 627.77C365.638 626.284 364.513 624.522 363.706 622.485C362.9 620.447 362.496 618.24 362.496 615.863C362.496 613.485 362.9 611.278 363.706 609.24C364.513 607.203 365.638 605.441 367.081 603.955C368.524 602.47 370.244 601.324 372.239 600.517C374.234 599.668 376.42 599.244 378.797 599.244ZM378.797 625.923C379.986 625.923 381.132 625.69 382.236 625.223C383.339 624.756 384.316 624.098 385.165 623.249C386.056 622.4 386.757 621.36 387.266 620.129C387.775 618.855 388.03 617.433 388.03 615.863C388.03 614.292 387.775 612.891 387.266 611.66C386.757 610.387 386.056 609.325 385.165 608.476C384.316 607.627 383.339 606.969 382.236 606.502C381.132 606.036 379.986 605.802 378.797 605.802C377.609 605.802 376.462 606.036 375.359 606.502C374.255 606.969 373.257 607.627 372.366 608.476C371.517 609.325 370.838 610.387 370.328 611.66C369.819 612.891 369.564 614.292 369.564 615.863C369.564 617.433 369.819 618.855 370.328 620.129C370.838 621.36 371.517 622.4 372.366 623.249C373.257 624.098 374.255 624.756 375.359 625.223C376.462 625.69 377.609 625.923 378.797 625.923ZM402.975 606.502H397.499V600.262H402.975V590.711H410.043V600.262H417.748V606.502H410.043V620.384C410.043 621.148 410.128 621.848 410.298 622.485C410.467 623.122 410.722 623.652 411.062 624.077C411.783 624.883 412.696 625.286 413.8 625.286C414.479 625.286 415.01 625.244 415.392 625.159C415.774 625.032 416.177 624.862 416.601 624.65L418.766 630.89C417.875 631.229 416.941 631.484 415.965 631.654C414.988 631.866 413.885 631.972 412.654 631.972C411.168 631.972 409.852 631.739 408.706 631.272C407.56 630.805 406.562 630.168 405.713 629.362C403.888 627.536 402.975 625.053 402.975 621.912V606.502ZM442.719 627.642H442.336C441.403 628.873 440.193 629.998 438.707 631.017C437.221 631.994 435.332 632.482 433.04 632.482C431.384 632.482 429.835 632.206 428.392 631.654C426.948 631.145 425.696 630.423 424.635 629.489C423.574 628.513 422.725 627.388 422.088 626.114C421.494 624.798 421.196 623.355 421.196 621.784C421.196 620.129 421.515 618.643 422.152 617.327C422.831 616.011 423.743 614.907 424.89 614.016C426.078 613.125 427.479 612.445 429.092 611.978C430.705 611.469 432.446 611.214 434.313 611.214C436.393 611.214 438.134 611.427 439.535 611.851C440.936 612.233 441.997 612.594 442.719 612.934V611.724C442.719 610.79 442.506 609.92 442.082 609.113C441.7 608.307 441.148 607.627 440.426 607.076C439.747 606.481 438.962 606.036 438.07 605.738C437.179 605.399 436.245 605.229 435.269 605.229C433.698 605.229 432.276 605.547 431.002 606.184C429.771 606.778 428.668 607.755 427.691 609.113L422.088 605.42C423.574 603.382 425.42 601.854 427.628 600.835C429.835 599.774 432.34 599.244 435.141 599.244C439.768 599.244 443.334 600.39 445.839 602.682C448.386 604.974 449.659 608.243 449.659 612.488V631.463H442.719V627.642ZM442.719 618.473C441.785 617.921 440.745 617.476 439.598 617.136C438.452 616.797 437.136 616.627 435.651 616.627C433.443 616.627 431.682 617.136 430.366 618.155C429.05 619.174 428.392 620.405 428.392 621.848C428.392 622.612 428.562 623.291 428.901 623.886C429.241 624.437 429.665 624.926 430.175 625.35C430.726 625.775 431.342 626.093 432.021 626.305C432.743 626.517 433.464 626.624 434.186 626.624C435.332 626.624 436.415 626.411 437.434 625.987C438.495 625.52 439.407 624.926 440.172 624.204C440.936 623.44 441.551 622.57 442.018 621.593C442.485 620.617 442.719 619.577 442.719 618.473ZM456.309 631.463V585.872H463.377V631.463H456.309ZM513.386 624.013C512.07 626.433 510.202 628.449 507.782 630.062C505.363 631.675 502.391 632.482 498.868 632.482C496.533 632.482 494.368 632.078 492.373 631.272C490.421 630.423 488.723 629.256 487.279 627.77C485.836 626.284 484.711 624.544 483.905 622.548C483.098 620.511 482.695 618.282 482.695 615.863C482.695 613.613 483.077 611.49 483.841 609.495C484.605 607.458 485.666 605.696 487.025 604.21C488.425 602.682 490.102 601.472 492.055 600.581C494.008 599.689 496.172 599.244 498.55 599.244C500.969 599.244 503.113 599.647 504.981 600.453C506.891 601.26 508.504 602.385 509.82 603.828C511.136 605.271 512.134 607.012 512.813 609.049C513.534 611.087 513.895 613.316 513.895 615.735C513.895 615.948 513.895 616.139 513.895 616.308C513.853 616.521 513.832 616.712 513.832 616.881C513.789 617.051 513.768 617.221 513.768 617.391H489.763C489.89 618.877 490.251 620.171 490.845 621.275C491.439 622.379 492.161 623.291 493.01 624.013C493.901 624.735 494.878 625.265 495.939 625.605C497 625.944 498.04 626.114 499.059 626.114C501.097 626.114 502.773 625.626 504.089 624.65C505.405 623.673 506.488 622.464 507.337 621.02L513.386 624.013ZM506.827 611.978C506.742 611.342 506.53 610.641 506.191 609.877C505.893 609.071 505.405 608.349 504.726 607.712C504.089 607.033 503.24 606.46 502.179 605.993C501.16 605.526 499.908 605.293 498.422 605.293C496.385 605.293 494.623 605.908 493.137 607.139C491.694 608.328 490.718 609.941 490.208 611.978H506.827ZM539.288 627.642H538.905C537.972 628.873 536.762 629.998 535.276 631.017C533.79 631.994 531.901 632.482 529.609 632.482C527.953 632.482 526.404 632.206 524.961 631.654C523.517 631.145 522.265 630.423 521.204 629.489C520.143 628.513 519.294 627.388 518.657 626.114C518.063 624.798 517.765 623.355 517.765 621.784C517.765 620.129 518.084 618.643 518.721 617.327C519.4 616.011 520.312 614.907 521.459 614.016C522.647 613.125 524.048 612.445 525.661 611.978C527.274 611.469 529.015 611.214 530.882 611.214C532.962 611.214 534.703 611.427 536.104 611.851C537.505 612.233 538.566 612.594 539.288 612.934V611.724C539.288 610.79 539.075 609.92 538.651 609.113C538.269 608.307 537.717 607.627 536.995 607.076C536.316 606.481 535.531 606.036 534.639 605.738C533.748 605.399 532.814 605.229 531.838 605.229C530.267 605.229 528.845 605.547 527.571 606.184C526.34 606.778 525.237 607.755 524.26 609.113L518.657 605.42C520.143 603.382 521.989 601.854 524.197 600.835C526.404 599.774 528.909 599.244 531.71 599.244C536.337 599.244 539.903 600.39 542.408 602.682C544.955 604.974 546.228 608.243 546.228 612.488V631.463H539.288V627.642ZM539.288 618.473C538.354 617.921 537.314 617.476 536.167 617.136C535.021 616.797 533.705 616.627 532.22 616.627C530.012 616.627 528.251 617.136 526.935 618.155C525.619 619.174 524.961 620.405 524.961 621.848C524.961 622.612 525.131 623.291 525.47 623.886C525.81 624.437 526.234 624.926 526.744 625.35C527.295 625.775 527.911 626.093 528.59 626.305C529.312 626.517 530.033 626.624 530.755 626.624C531.901 626.624 532.984 626.411 534.003 625.987C535.064 625.52 535.976 624.926 536.741 624.204C537.505 623.44 538.12 622.57 538.587 621.593C539.054 620.617 539.288 619.577 539.288 618.473ZM552.878 600.262H559.564V604.974H559.946C560.328 604.168 560.837 603.425 561.474 602.746C562.153 602.024 562.896 601.43 563.703 600.963C564.552 600.453 565.422 600.071 566.313 599.817C567.247 599.519 568.139 599.371 568.988 599.371C570.006 599.371 570.877 599.456 571.598 599.626C572.32 599.795 572.978 600.029 573.572 600.326L571.535 606.884C571.068 606.672 570.537 606.524 569.943 606.439C569.391 606.311 568.712 606.248 567.905 606.248C566.759 606.248 565.698 606.481 564.722 606.948C563.788 607.415 562.96 608.052 562.238 608.858C561.517 609.665 560.943 610.62 560.519 611.724C560.137 612.827 559.946 613.995 559.946 615.226V631.463H552.878V600.262ZM584.064 604.465H584.446C585.38 602.979 586.696 601.748 588.394 600.772C590.134 599.753 592.087 599.244 594.252 599.244C598.199 599.244 601.15 600.432 603.102 602.809C605.055 605.144 606.031 608.264 606.031 612.169V631.463H598.964V613.125C598.964 610.408 598.327 608.519 597.053 607.458C595.822 606.354 594.188 605.802 592.15 605.802C590.919 605.802 589.837 606.057 588.903 606.566C587.969 607.076 587.162 607.776 586.483 608.667C585.804 609.516 585.295 610.514 584.955 611.66C584.615 612.764 584.446 613.931 584.446 615.162V631.463H577.378V600.262H584.064V604.465ZM641.792 624.013C640.476 626.433 638.608 628.449 636.189 630.062C633.769 631.675 630.798 632.482 627.274 632.482C624.94 632.482 622.775 632.078 620.78 631.272C618.827 630.423 617.129 629.256 615.686 627.77C614.242 626.284 613.117 624.544 612.311 622.548C611.504 620.511 611.101 618.282 611.101 615.863C611.101 613.613 611.483 611.49 612.247 609.495C613.011 607.458 614.072 605.696 615.431 604.21C616.832 602.682 618.508 601.472 620.461 600.581C622.414 599.689 624.579 599.244 626.956 599.244C629.376 599.244 631.519 599.647 633.387 600.453C635.297 601.26 636.91 602.385 638.226 603.828C639.542 605.271 640.54 607.012 641.219 609.049C641.941 611.087 642.302 613.316 642.302 615.735C642.302 615.948 642.302 616.139 642.302 616.308C642.259 616.521 642.238 616.712 642.238 616.881C642.195 617.051 642.174 617.221 642.174 617.391H618.169C618.296 618.877 618.657 620.171 619.251 621.275C619.846 622.379 620.567 623.291 621.416 624.013C622.308 624.735 623.284 625.265 624.345 625.605C625.407 625.944 626.447 626.114 627.465 626.114C629.503 626.114 631.18 625.626 632.496 624.65C633.812 623.673 634.894 622.464 635.743 621.02L641.792 624.013ZM635.234 611.978C635.149 611.342 634.937 610.641 634.597 609.877C634.3 609.071 633.812 608.349 633.132 607.712C632.496 607.033 631.647 606.46 630.585 605.993C629.567 605.526 628.314 605.293 626.829 605.293C624.791 605.293 623.029 605.908 621.544 607.139C620.1 608.328 619.124 609.941 618.615 611.978H635.234ZM671.578 627.451H671.196C670.347 628.81 669.052 629.998 667.312 631.017C665.571 631.994 663.491 632.482 661.072 632.482C659.076 632.482 657.166 632.078 655.341 631.272C653.558 630.423 651.987 629.256 650.629 627.77C649.271 626.284 648.188 624.544 647.382 622.548C646.575 620.511 646.172 618.282 646.172 615.863C646.172 613.443 646.575 611.236 647.382 609.24C648.188 607.203 649.271 605.441 650.629 603.955C651.987 602.47 653.558 601.324 655.341 600.517C657.166 599.668 659.076 599.244 661.072 599.244C663.491 599.244 665.571 599.753 667.312 600.772C669.052 601.748 670.347 602.915 671.196 604.274H671.578L671.196 599.944V585.872H678.264V631.463H671.578V627.451ZM662.409 625.923C663.597 625.923 664.743 625.69 665.847 625.223C666.993 624.756 667.97 624.098 668.776 623.249C669.625 622.4 670.304 621.36 670.814 620.129C671.323 618.855 671.578 617.433 671.578 615.863C671.578 614.292 671.323 612.891 670.814 611.66C670.304 610.387 669.625 609.325 668.776 608.476C667.97 607.627 666.993 606.969 665.847 606.502C664.743 606.036 663.597 605.802 662.409 605.802C661.178 605.802 660.01 606.036 658.907 606.502C657.803 606.969 656.827 607.649 655.978 608.54C655.171 609.389 654.513 610.429 654.004 611.66C653.494 612.891 653.24 614.292 653.24 615.863C653.24 617.433 653.494 618.834 654.004 620.065C654.513 621.296 655.171 622.357 655.978 623.249C656.827 624.098 657.803 624.756 658.907 625.223C660.01 625.69 661.178 625.923 662.409 625.923ZM689.782 631.845C688.424 631.845 687.256 631.378 686.28 630.444C685.346 629.468 684.879 628.3 684.879 626.942C684.879 625.584 685.346 624.416 686.28 623.44C687.256 622.464 688.424 621.975 689.782 621.975C691.14 621.975 692.308 622.464 693.284 623.44C694.26 624.416 694.749 625.584 694.749 626.942C694.749 628.3 694.26 629.468 693.284 630.444C692.308 631.378 691.14 631.845 689.782 631.845ZM689.782 609.495C688.424 609.495 687.256 609.028 686.28 608.094C685.346 607.118 684.879 605.951 684.879 604.592C684.879 603.234 685.346 602.088 686.28 601.154C687.256 600.177 688.424 599.689 689.782 599.689C691.14 599.689 692.308 600.177 693.284 601.154C694.26 602.088 694.749 603.234 694.749 604.592C694.749 605.951 694.26 607.118 693.284 608.094C692.308 609.028 691.14 609.495 689.782 609.495Z" fill="black"/>
<path d="M211.259 479.086C207.836 483.113 203.708 486.302 198.875 488.651C194.043 490.933 188.606 492.074 182.565 492.074C177.196 492.074 172.229 491.134 167.665 489.255C163.101 487.308 159.107 484.657 155.684 481.301C152.328 477.878 149.677 473.885 147.731 469.32C145.851 464.756 144.912 459.79 144.912 454.42C144.912 449.118 145.851 444.184 147.731 439.62C149.677 434.989 152.328 430.996 155.684 427.64C159.107 424.217 163.101 421.565 167.665 419.686C172.229 417.74 177.196 416.766 182.565 416.766C188.136 416.766 193.137 417.807 197.566 419.887C201.996 421.901 205.889 424.787 209.245 428.546L201.191 436.399C198.775 433.513 196.056 431.331 193.036 429.855C190.083 428.378 186.592 427.64 182.565 427.64C179.008 427.64 175.618 428.277 172.397 429.553C169.242 430.761 166.49 432.539 164.141 434.888C161.792 437.171 159.913 439.99 158.503 443.345C157.161 446.634 156.49 450.326 156.49 454.42C156.49 458.514 157.161 462.239 158.503 465.595C159.913 468.884 161.792 471.703 164.141 474.052C166.49 476.334 169.242 478.113 172.397 479.388C175.618 480.596 179.008 481.2 182.565 481.2C186.861 481.2 190.687 480.328 194.043 478.583C197.399 476.771 200.385 474.287 203.003 471.133L211.259 479.086ZM241.552 439.52C245.31 439.52 248.767 440.191 251.922 441.533C255.076 442.808 257.795 444.621 260.077 446.97C262.359 449.319 264.137 452.104 265.413 455.326C266.688 458.548 267.325 462.038 267.325 465.797C267.325 469.555 266.688 473.046 265.413 476.267C264.137 479.489 262.359 482.274 260.077 484.624C257.795 486.973 255.076 488.818 251.922 490.161C248.767 491.436 245.31 492.074 241.552 492.074C237.793 492.074 234.336 491.436 231.182 490.161C228.027 488.818 225.309 486.973 223.027 484.624C220.745 482.274 218.966 479.489 217.691 476.267C216.416 473.046 215.778 469.555 215.778 465.797C215.778 462.038 216.416 458.548 217.691 455.326C218.966 452.104 220.745 449.319 223.027 446.97C225.309 444.621 228.027 442.808 231.182 441.533C234.336 440.191 237.793 439.52 241.552 439.52ZM241.552 481.704C243.431 481.704 245.243 481.335 246.988 480.596C248.733 479.858 250.277 478.818 251.62 477.475C253.029 476.133 254.137 474.489 254.942 472.542C255.747 470.529 256.15 468.28 256.15 465.797C256.15 463.313 255.747 461.098 254.942 459.152C254.137 457.138 253.029 455.46 251.62 454.118C250.277 452.776 248.733 451.735 246.988 450.997C245.243 450.259 243.431 449.89 241.552 449.89C239.672 449.89 237.86 450.259 236.115 450.997C234.37 451.735 232.793 452.776 231.383 454.118C230.041 455.46 228.967 457.138 228.162 459.152C227.356 461.098 226.953 463.313 226.953 465.797C226.953 468.28 227.356 470.529 228.162 472.542C228.967 474.489 230.041 476.133 231.383 477.475C232.793 478.818 234.37 479.858 236.115 480.596C237.86 481.335 239.672 481.704 241.552 481.704ZM285.407 447.775H286.011C287.487 445.426 289.568 443.48 292.253 441.936C295.005 440.325 298.092 439.52 301.515 439.52C307.757 439.52 312.422 441.399 315.509 445.158C318.597 448.849 320.141 453.782 320.141 459.957V490.463H308.965V461.468C308.965 457.172 307.959 454.185 305.945 452.507C303.999 450.762 301.414 449.89 298.193 449.89C296.246 449.89 294.535 450.292 293.058 451.098C291.582 451.903 290.306 453.011 289.232 454.42C288.158 455.762 287.353 457.34 286.816 459.152C286.279 460.897 286.011 462.743 286.011 464.689V490.463H274.835V441.131H285.407V447.775ZM352.834 513.82C349.411 513.82 346.357 513.35 343.673 512.411C341.055 511.538 338.773 510.397 336.826 508.988C334.88 507.578 333.269 506.001 331.994 504.256C330.786 502.511 329.88 500.833 329.276 499.222L339.948 494.893C340.887 497.51 342.498 499.625 344.78 501.235C347.062 502.913 349.747 503.752 352.834 503.752C357.466 503.752 361.056 502.343 363.607 499.524C366.225 496.705 367.533 492.812 367.533 487.845V483.818H366.929C365.386 486.033 363.238 487.879 360.486 489.355C357.801 490.832 354.647 491.57 351.022 491.57C348.002 491.57 345.082 490.933 342.263 489.657C339.444 488.382 336.927 486.604 334.712 484.322C332.564 482.039 330.853 479.288 329.578 476.066C328.302 472.844 327.665 469.32 327.665 465.495C327.665 461.669 328.302 458.179 329.578 455.024C330.853 451.802 332.564 449.051 334.712 446.769C336.927 444.486 339.444 442.708 342.263 441.433C345.082 440.157 348.002 439.52 351.022 439.52C354.647 439.52 357.801 440.258 360.486 441.735C363.238 443.211 365.386 445.057 366.929 447.272H367.533V441.131H378.306V487.644C378.306 491.872 377.635 495.597 376.292 498.819C375.017 502.108 373.238 504.86 370.956 507.075C368.742 509.29 366.057 510.968 362.902 512.109C359.815 513.25 356.459 513.82 352.834 513.82ZM353.237 481.2C355.049 481.2 356.828 480.865 358.573 480.194C360.318 479.523 361.828 478.516 363.104 477.173C364.446 475.831 365.52 474.187 366.325 472.24C367.131 470.294 367.533 468.045 367.533 465.495C367.533 463.011 367.131 460.796 366.325 458.85C365.52 456.836 364.446 455.192 363.104 453.917C361.828 452.574 360.318 451.568 358.573 450.896C356.828 450.158 355.049 449.789 353.237 449.789C351.358 449.789 349.546 450.158 347.8 450.896C346.122 451.568 344.612 452.574 343.27 453.917C341.928 455.259 340.854 456.903 340.048 458.85C339.243 460.796 338.84 463.011 338.84 465.495C338.84 467.978 339.243 470.193 340.048 472.139C340.854 474.086 341.928 475.73 343.27 477.073C344.612 478.415 346.122 479.455 347.8 480.194C349.546 480.865 351.358 481.2 353.237 481.2ZM389.573 441.131H400.144V448.581H400.749C401.353 447.305 402.158 446.131 403.165 445.057C404.239 443.916 405.413 442.976 406.689 442.238C408.031 441.433 409.407 440.828 410.816 440.426C412.293 439.956 413.702 439.721 415.045 439.721C416.656 439.721 418.032 439.855 419.173 440.124C420.314 440.392 421.354 440.761 422.294 441.231L419.072 451.601C418.334 451.265 417.495 451.031 416.555 450.896C415.682 450.695 414.609 450.594 413.333 450.594C411.521 450.594 409.843 450.963 408.299 451.702C406.823 452.44 405.514 453.447 404.373 454.722C403.232 455.997 402.326 457.508 401.655 459.253C401.051 460.998 400.749 462.843 400.749 464.79V490.463H389.573V441.131ZM457.555 484.422H456.951C455.474 486.369 453.561 488.147 451.212 489.758C448.863 491.302 445.876 492.074 442.252 492.074C439.634 492.074 437.184 491.637 434.902 490.765C432.62 489.959 430.64 488.818 428.962 487.342C427.284 485.798 425.942 484.019 424.935 482.006C423.995 479.925 423.525 477.643 423.525 475.16C423.525 472.542 424.029 470.193 425.036 468.112C426.109 466.032 427.553 464.287 429.365 462.877C431.244 461.468 433.459 460.394 436.01 459.655C438.56 458.85 441.312 458.447 444.265 458.447C447.554 458.447 450.306 458.783 452.521 459.454C454.736 460.058 456.414 460.629 457.555 461.166V459.253C457.555 457.776 457.219 456.4 456.548 455.125C455.944 453.85 455.071 452.776 453.93 451.903C452.856 450.963 451.615 450.259 450.205 449.789C448.796 449.252 447.319 448.983 445.775 448.983C443.292 448.983 441.043 449.487 439.03 450.494C437.083 451.433 435.338 452.977 433.795 455.125L424.935 449.285C427.284 446.064 430.204 443.647 433.694 442.037C437.184 440.359 441.144 439.52 445.574 439.52C452.89 439.52 458.528 441.332 462.488 444.956C466.515 448.581 468.529 453.749 468.529 460.461V490.463H457.555V484.422ZM457.555 469.925C456.078 469.052 454.434 468.347 452.621 467.81C450.809 467.273 448.729 467.005 446.379 467.005C442.889 467.005 440.104 467.81 438.023 469.421C435.942 471.032 434.902 472.978 434.902 475.26C434.902 476.469 435.171 477.543 435.707 478.482C436.244 479.355 436.916 480.127 437.721 480.798C438.594 481.469 439.567 481.972 440.641 482.308C441.782 482.644 442.923 482.811 444.064 482.811C445.876 482.811 447.588 482.476 449.198 481.805C450.876 481.066 452.319 480.127 453.528 478.986C454.736 477.777 455.709 476.401 456.447 474.858C457.186 473.314 457.555 471.67 457.555 469.925ZM483.497 450.997H474.838V441.131H483.497V426.029H494.672V441.131H506.854V450.997H494.672V472.945C494.672 474.153 494.806 475.26 495.075 476.267C495.343 477.274 495.746 478.113 496.283 478.784C497.424 480.059 498.867 480.697 500.612 480.697C501.686 480.697 502.525 480.63 503.129 480.496C503.733 480.294 504.371 480.026 505.042 479.69L508.465 489.557C507.055 490.094 505.579 490.496 504.035 490.765C502.491 491.101 500.746 491.268 498.8 491.268C496.451 491.268 494.37 490.899 492.558 490.161C490.745 489.423 489.168 488.416 487.826 487.141C484.94 484.254 483.497 480.328 483.497 475.361V450.997ZM550.441 483.818H549.837C548.36 486.167 546.246 488.147 543.494 489.758C540.809 491.302 537.755 492.074 534.332 492.074C528.09 492.074 523.425 490.228 520.338 486.536C517.25 482.778 515.707 477.811 515.707 471.636V441.131H526.882V470.126C526.882 474.421 527.855 477.442 529.802 479.187C531.815 480.865 534.433 481.704 537.654 481.704C539.534 481.704 541.212 481.301 542.688 480.496C544.232 479.69 545.541 478.616 546.615 477.274C547.689 475.865 548.494 474.287 549.031 472.542C549.568 470.73 549.837 468.851 549.837 466.904V441.131H561.012V490.463H550.441V483.818ZM572.249 490.463V418.377H583.425V490.463H572.249ZM625.385 484.422H624.781C623.304 486.369 621.391 488.147 619.042 489.758C616.693 491.302 613.706 492.074 610.082 492.074C607.464 492.074 605.014 491.637 602.732 490.765C600.45 489.959 598.47 488.818 596.792 487.342C595.114 485.798 593.772 484.019 592.765 482.006C591.825 479.925 591.355 477.643 591.355 475.16C591.355 472.542 591.859 470.193 592.866 468.112C593.939 466.032 595.383 464.287 597.195 462.877C599.074 461.468 601.289 460.394 603.839 459.655C606.39 458.85 609.142 458.447 612.095 458.447C615.384 458.447 618.136 458.783 620.351 459.454C622.566 460.058 624.244 460.629 625.385 461.166V459.253C625.385 457.776 625.049 456.4 624.378 455.125C623.774 453.85 622.901 452.776 621.76 451.903C620.686 450.963 619.445 450.259 618.035 449.789C616.626 449.252 615.149 448.983 613.605 448.983C611.122 448.983 608.873 449.487 606.86 450.494C604.913 451.433 603.168 452.977 601.625 455.125L592.765 449.285C595.114 446.064 598.034 443.647 601.524 442.037C605.014 440.359 608.974 439.52 613.404 439.52C620.72 439.52 626.358 441.332 630.318 444.956C634.345 448.581 636.359 453.749 636.359 460.461V490.463H625.385V484.422ZM625.385 469.925C623.908 469.052 622.264 468.347 620.451 467.81C618.639 467.273 616.559 467.005 614.209 467.005C610.719 467.005 607.934 467.81 605.853 469.421C603.772 471.032 602.732 472.978 602.732 475.26C602.732 476.469 603 477.543 603.537 478.482C604.074 479.355 604.746 480.127 605.551 480.798C606.424 481.469 607.397 481.972 608.471 482.308C609.612 482.644 610.753 482.811 611.894 482.811C613.706 482.811 615.417 482.476 617.028 481.805C618.706 481.066 620.149 480.127 621.358 478.986C622.566 477.777 623.539 476.401 624.277 474.858C625.015 473.314 625.385 471.67 625.385 469.925ZM651.327 450.997H642.668V441.131H651.327V426.029H662.502V441.131H674.684V450.997H662.502V472.945C662.502 474.153 662.636 475.26 662.905 476.267C663.173 477.274 663.576 478.113 664.113 478.784C665.254 480.059 666.697 480.697 668.442 480.697C669.516 480.697 670.355 480.63 670.959 480.496C671.563 480.294 672.201 480.026 672.872 479.69L676.295 489.557C674.885 490.094 673.409 490.496 671.865 490.765C670.321 491.101 668.576 491.268 666.63 491.268C664.281 491.268 662.2 490.899 660.388 490.161C658.575 489.423 656.998 488.416 655.656 487.141C652.77 484.254 651.327 480.328 651.327 475.361V450.997ZM690.874 432.372C688.726 432.372 686.914 431.633 685.438 430.157C684.028 428.68 683.323 426.901 683.323 424.821C683.323 422.74 684.028 420.961 685.438 419.485C686.914 418.008 688.726 417.27 690.874 417.27C692.955 417.27 694.7 418.008 696.11 419.485C697.586 420.961 698.324 422.74 698.324 424.821C698.324 426.901 697.586 428.68 696.11 430.157C694.7 431.633 692.955 432.372 690.874 432.372ZM685.236 490.463V441.131H696.412V490.463H685.236ZM730.982 439.52C734.741 439.52 738.197 440.191 741.352 441.533C744.506 442.808 747.225 444.621 749.507 446.97C751.789 449.319 753.567 452.104 754.843 455.326C756.118 458.548 756.756 462.038 756.756 465.797C756.756 469.555 756.118 473.046 754.843 476.267C753.567 479.489 751.789 482.274 749.507 484.624C747.225 486.973 744.506 488.818 741.352 490.161C738.197 491.436 734.741 492.074 730.982 492.074C727.223 492.074 723.767 491.436 720.612 490.161C717.458 488.818 714.739 486.973 712.457 484.624C710.175 482.274 708.396 479.489 707.121 476.267C705.846 473.046 705.208 469.555 705.208 465.797C705.208 462.038 705.846 458.548 707.121 455.326C708.396 452.104 710.175 449.319 712.457 446.97C714.739 444.621 717.458 442.808 720.612 441.533C723.767 440.191 727.223 439.52 730.982 439.52ZM730.982 481.704C732.861 481.704 734.674 481.335 736.419 480.596C738.164 479.858 739.707 478.818 741.05 477.475C742.459 476.133 743.567 474.489 744.372 472.542C745.178 470.529 745.58 468.28 745.58 465.797C745.58 463.313 745.178 461.098 744.372 459.152C743.567 457.138 742.459 455.46 741.05 454.118C739.707 452.776 738.164 451.735 736.419 450.997C734.674 450.259 732.861 449.89 730.982 449.89C729.103 449.89 727.29 450.259 725.545 450.997C723.8 451.735 722.223 452.776 720.813 454.118C719.471 455.46 718.397 457.138 717.592 459.152C716.786 461.098 716.384 463.313 716.384 465.797C716.384 468.28 716.786 470.529 717.592 472.542C718.397 474.489 719.471 476.133 720.813 477.475C722.223 478.818 723.8 479.858 725.545 480.596C727.29 481.335 729.103 481.704 730.982 481.704ZM774.837 447.775H775.441C776.918 445.426 778.998 443.48 781.683 441.936C784.435 440.325 787.522 439.52 790.945 439.52C797.187 439.52 801.852 441.399 804.94 445.158C808.027 448.849 809.571 453.782 809.571 459.957V490.463H798.396V461.468C798.396 457.172 797.389 454.185 795.375 452.507C793.429 450.762 790.845 449.89 787.623 449.89C785.677 449.89 783.965 450.292 782.488 451.098C781.012 451.903 779.737 453.011 778.663 454.42C777.589 455.762 776.783 457.34 776.246 459.152C775.709 460.897 775.441 462.743 775.441 464.689V490.463H764.266V441.131H774.837V447.775ZM838.64 492.074C835.62 492.074 832.901 491.671 830.485 490.866C828.069 490.06 825.955 489.02 824.142 487.745C822.33 486.402 820.786 484.892 819.511 483.214C818.303 481.536 817.363 479.791 816.692 477.979L826.76 473.75C827.901 476.636 829.545 478.784 831.693 480.194C833.841 481.536 836.157 482.207 838.64 482.207C841.459 482.207 843.674 481.637 845.285 480.496C846.896 479.355 847.701 478.079 847.701 476.67C847.701 475.26 847.097 474.052 845.889 473.046C844.681 471.972 842.399 471.032 839.043 470.227L831.995 468.515C830.452 468.179 828.874 467.676 827.263 467.005C825.72 466.267 824.277 465.36 822.934 464.287C821.592 463.146 820.484 461.803 819.612 460.259C818.806 458.649 818.404 456.769 818.404 454.621C818.404 452.205 818.907 450.057 819.914 448.178C820.988 446.299 822.431 444.721 824.243 443.446C826.055 442.171 828.136 441.198 830.485 440.526C832.901 439.855 835.452 439.52 838.137 439.52C840.352 439.52 842.466 439.755 844.479 440.224C846.56 440.694 848.473 441.399 850.218 442.339C851.963 443.278 853.507 444.486 854.849 445.963C856.259 447.373 857.366 449.051 858.172 450.997L848.305 455.125C847.366 452.977 845.889 451.433 843.875 450.494C841.862 449.487 839.815 448.983 837.734 448.983C836.794 448.983 835.821 449.118 834.814 449.386C833.875 449.588 833.002 449.923 832.197 450.393C831.458 450.796 830.821 451.333 830.284 452.004C829.814 452.675 829.579 453.413 829.579 454.219C829.579 455.561 830.15 456.635 831.291 457.44C832.499 458.179 834.311 458.85 836.727 459.454L844.278 461.367C849.379 462.642 853.104 464.589 855.453 467.206C857.87 469.757 859.078 472.777 859.078 476.267C859.078 478.415 858.574 480.429 857.568 482.308C856.628 484.187 855.252 485.865 853.44 487.342C851.628 488.818 849.446 489.959 846.896 490.765C844.412 491.637 841.66 492.074 838.64 492.074ZM874.054 491.067C871.906 491.067 870.06 490.329 868.516 488.852C867.04 487.308 866.301 485.463 866.301 483.315C866.301 481.167 867.04 479.321 868.516 477.777C870.06 476.234 871.906 475.462 874.054 475.462C876.202 475.462 878.047 476.234 879.591 477.777C881.135 479.321 881.907 481.167 881.907 483.315C881.907 485.463 881.135 487.308 879.591 488.852C878.047 490.329 876.202 491.067 874.054 491.067ZM868.416 440.124V418.377H879.792V440.124L878.685 466.904H869.523L868.416 440.124Z" fill="black"/>
<path d="M402 363.69H597.576V168.114H402V363.69Z" fill="black"/>
</svg>
