<svg width="852" height="179" viewBox="0 0 852 179" fill="none" xmlns="http://www.w3.org/2000/svg">
<path d="M46.866 19.6329H64.31C66.5623 19.6329 68.6537 20.0006 70.5843 20.7361C72.5608 21.4715 74.2616 22.5287 75.6865 23.9077C77.1114 25.2407 78.2146 26.8265 78.996 28.6651C79.8234 30.5038 80.2371 32.5262 80.2371 34.7326C80.2371 36.4333 79.9383 38.0421 79.3408 39.559C78.7892 41.0759 78.0078 42.4548 76.9965 43.6959C75.9853 44.891 74.7902 45.9252 73.4112 46.7986C72.0782 47.6719 70.6303 48.3155 69.0674 48.7291L68.9985 49.0739L82.5124 68.5863V69H73.4112L60.3799 49.7634H54.6572V69H46.866V19.6329ZM64.1031 42.4548C65.2523 42.4548 66.3095 42.271 67.2748 41.9032C68.286 41.4896 69.1594 40.938 69.8948 40.2485C70.6303 39.559 71.2048 38.7546 71.6185 37.8353C72.0782 36.87 72.308 35.8128 72.308 34.6637C72.308 33.7443 72.1242 32.825 71.7564 31.9057C71.4347 30.9864 70.929 30.159 70.2396 29.4236C69.596 28.6881 68.7687 28.0906 67.7574 27.6309C66.7921 27.1713 65.666 26.9414 64.3789 26.9414H54.6572V42.4548H64.1031ZM117.667 60.933C116.242 63.5531 114.22 65.7364 111.599 67.4831C108.979 69.2298 105.762 70.1032 101.947 70.1032C99.4186 70.1032 97.0743 69.6665 94.914 68.7932C92.7995 67.8738 90.9609 66.6098 89.3981 65.001C87.8353 63.3922 86.6172 61.5076 85.7438 59.3472C84.8705 57.1409 84.4338 54.7277 84.4338 52.1076C84.4338 49.6714 84.8475 47.3732 85.6749 45.2128C86.5022 43.0064 87.6514 41.0988 89.1223 39.49C90.6392 37.8353 92.4548 36.5253 94.5692 35.56C96.6836 34.5947 99.0279 34.1121 101.602 34.1121C104.222 34.1121 106.543 34.5487 108.566 35.4221C110.634 36.2954 112.381 37.5135 113.806 39.0764C115.231 40.6392 116.311 42.5238 117.046 44.7301C117.828 46.9365 118.219 49.3497 118.219 51.9697C118.219 52.1996 118.219 52.4064 118.219 52.5903C118.173 52.8201 118.15 53.0269 118.15 53.2108C118.104 53.3947 118.081 53.5785 118.081 53.7624H92.0871C92.225 55.3712 92.6157 56.7731 93.2592 57.9682C93.9027 59.1633 94.6841 60.1516 95.6034 60.933C96.5687 61.7144 97.6259 62.289 98.7751 62.6567C99.9242 63.0245 101.05 63.2083 102.154 63.2083C104.36 63.2083 106.176 62.6797 107.6 61.6225C109.025 60.5653 110.198 59.2553 111.117 57.6924L117.667 60.933ZM110.565 47.9018C110.473 47.2123 110.244 46.4538 109.876 45.6265C109.554 44.7531 109.025 43.9717 108.29 43.2822C107.6 42.5468 106.681 41.9262 105.532 41.4206C104.429 40.915 103.073 40.6622 101.464 40.6622C99.2577 40.6622 97.3501 41.3287 95.7413 42.6617C94.1785 43.9487 93.1213 45.6954 92.5697 47.9018H110.565ZM155.574 60.3814C154.93 61.7144 154.126 62.9785 153.16 64.1736C152.241 65.3227 151.138 66.357 149.851 67.2763C148.61 68.1496 147.162 68.8391 145.507 69.3447C143.852 69.8504 142.037 70.1032 140.06 70.1032C137.486 70.1032 135.119 69.6665 132.958 68.7932C130.798 67.8738 128.936 66.6098 127.374 65.001C125.811 63.3922 124.593 61.4846 123.719 59.2783C122.846 57.0719 122.409 54.6817 122.409 52.1076C122.409 49.5335 122.846 47.1433 123.719 44.937C124.593 42.7306 125.811 40.8231 127.374 39.2143C128.936 37.6055 130.798 36.3644 132.958 35.491C135.119 34.5717 137.486 34.1121 140.06 34.1121C142.037 34.1121 143.829 34.3649 145.438 34.8705C147.093 35.3761 148.541 36.0886 149.782 37.0079C151.069 37.8812 152.172 38.9155 153.091 40.1106C154.011 41.2597 154.746 42.4778 155.298 43.7649L148.265 46.7296C147.484 44.9829 146.403 43.627 145.024 42.6617C143.645 41.6964 141.899 41.2138 139.784 41.2138C138.497 41.2138 137.256 41.4896 136.061 42.0411C134.912 42.5468 133.878 43.2822 132.958 44.2475C132.085 45.1668 131.373 46.293 130.821 47.626C130.315 48.959 130.063 50.4529 130.063 52.1076C130.063 53.7624 130.315 55.2563 130.821 56.5893C131.373 57.9223 132.085 59.0714 132.958 60.0367C133.878 60.956 134.912 61.6915 136.061 62.243C137.256 62.7487 138.497 63.0015 139.784 63.0015C141.899 63.0015 143.691 62.5188 145.162 61.5536C146.679 60.5423 147.851 59.1633 148.679 57.4167L155.574 60.3814ZM192.069 60.933C190.644 63.5531 188.622 65.7364 186.002 67.4831C183.382 69.2298 180.164 70.1032 176.349 70.1032C173.821 70.1032 171.477 69.6665 169.316 68.7932C167.202 67.8738 165.363 66.6098 163.801 65.001C162.238 63.3922 161.02 61.5076 160.146 59.3472C159.273 57.1409 158.836 54.7277 158.836 52.1076C158.836 49.6714 159.25 47.3732 160.077 45.2128C160.905 43.0064 162.054 41.0988 163.525 39.49C165.042 37.8353 166.857 36.5253 168.972 35.56C171.086 34.5947 173.43 34.1121 176.004 34.1121C178.624 34.1121 180.946 34.5487 182.968 35.4221C185.037 36.2954 186.783 37.5135 188.208 39.0764C189.633 40.6392 190.713 42.5238 191.449 44.7301C192.23 46.9365 192.621 49.3497 192.621 51.9697C192.621 52.1996 192.621 52.4064 192.621 52.5903C192.575 52.8201 192.552 53.0269 192.552 53.2108C192.506 53.3947 192.483 53.5785 192.483 53.7624H166.489C166.627 55.3712 167.018 56.7731 167.662 57.9682C168.305 59.1633 169.087 60.1516 170.006 60.933C170.971 61.7144 172.028 62.289 173.177 62.6567C174.327 63.0245 175.453 63.2083 176.556 63.2083C178.762 63.2083 180.578 62.6797 182.003 61.6225C183.428 60.5653 184.6 59.2553 185.519 57.6924L192.069 60.933ZM184.968 47.9018C184.876 47.2123 184.646 46.4538 184.278 45.6265C183.956 44.7531 183.428 43.9717 182.692 43.2822C182.003 42.5468 181.084 41.9262 179.934 41.4206C178.831 40.915 177.475 40.6622 175.866 40.6622C173.66 40.6622 171.753 41.3287 170.144 42.6617C168.581 43.9487 167.524 45.6954 166.972 47.9018H184.968ZM202.818 29.2167C201.347 29.2167 200.106 28.7111 199.095 27.6999C198.13 26.6886 197.647 25.4705 197.647 24.0456C197.647 22.6207 198.13 21.4026 199.095 20.3913C200.106 19.3801 201.347 18.8744 202.818 18.8744C204.243 18.8744 205.438 19.3801 206.404 20.3913C207.415 21.4026 207.921 22.6207 207.921 24.0456C207.921 25.4705 207.415 26.6886 206.404 27.6999C205.438 28.7111 204.243 29.2167 202.818 29.2167ZM198.957 69V35.2152H206.611V69H198.957ZM211.317 35.2152H219.935L229.037 59.0714H229.381L238.689 35.2152H247.101L232.967 69H225.313L211.317 35.2152ZM281.554 60.933C280.129 63.5531 278.107 65.7364 275.487 67.4831C272.867 69.2298 269.649 70.1032 265.834 70.1032C263.306 70.1032 260.962 69.6665 258.801 68.7932C256.687 67.8738 254.848 66.6098 253.285 65.001C251.723 63.3922 250.504 61.5076 249.631 59.3472C248.758 57.1409 248.321 54.7277 248.321 52.1076C248.321 49.6714 248.735 47.3732 249.562 45.2128C250.39 43.0064 251.539 41.0988 253.01 39.49C254.526 37.8353 256.342 36.5253 258.457 35.56C260.571 34.5947 262.915 34.1121 265.489 34.1121C268.109 34.1121 270.431 34.5487 272.453 35.4221C274.522 36.2954 276.268 37.5135 277.693 39.0764C279.118 40.6392 280.198 42.5238 280.934 44.7301C281.715 46.9365 282.106 49.3497 282.106 51.9697C282.106 52.1996 282.106 52.4064 282.106 52.5903C282.06 52.8201 282.037 53.0269 282.037 53.2108C281.991 53.3947 281.968 53.5785 281.968 53.7624H255.974C256.112 55.3712 256.503 56.7731 257.147 57.9682C257.79 59.1633 258.571 60.1516 259.491 60.933C260.456 61.7144 261.513 62.289 262.662 62.6567C263.812 63.0245 264.938 63.2083 266.041 63.2083C268.247 63.2083 270.063 62.6797 271.488 61.6225C272.913 60.5653 274.085 59.2553 275.004 57.6924L281.554 60.933ZM274.453 47.9018C274.361 47.2123 274.131 46.4538 273.763 45.6265C273.441 44.7531 272.913 43.9717 272.177 43.2822C271.488 42.5468 270.569 41.9262 269.419 41.4206C268.316 40.915 266.96 40.6622 265.351 40.6622C263.145 40.6622 261.237 41.3287 259.629 42.6617C258.066 43.9487 257.009 45.6954 256.457 47.9018H274.453ZM302.765 35.2152H310.004V39.559H310.418C311.337 38.0881 312.739 36.824 314.624 35.7668C316.508 34.6637 318.761 34.1121 321.381 34.1121C323.541 34.1121 325.587 34.5717 327.517 35.491C329.494 36.3644 331.217 37.6055 332.688 39.2143C334.159 40.8231 335.331 42.7306 336.205 44.937C337.078 47.0974 337.515 49.4876 337.515 52.1076C337.515 54.7277 337.078 57.1409 336.205 59.3472C335.331 61.5076 334.159 63.3922 332.688 65.001C331.217 66.6098 329.494 67.8738 327.517 68.7932C325.587 69.6665 323.541 70.1032 321.381 70.1032C318.761 70.1032 316.508 69.5746 314.624 68.5174C312.739 67.4142 311.337 66.1271 310.418 64.6562H310.004L310.418 69.3447V83.8929H302.765V35.2152ZM319.933 63.0015C321.22 63.0015 322.461 62.7487 323.656 62.243C324.897 61.7374 325.954 61.025 326.828 60.1056C327.747 59.1404 328.482 57.9912 329.034 56.6582C329.586 55.3252 329.861 53.8083 329.861 52.1076C329.861 50.4069 329.586 48.89 329.034 47.557C328.482 46.224 327.747 45.0979 326.828 44.1785C325.954 43.2133 324.897 42.4778 323.656 41.9722C322.461 41.4666 321.22 41.2138 319.933 41.2138C318.6 41.2138 317.336 41.4666 316.141 41.9722C314.945 42.4778 313.888 43.1903 312.969 44.1096C312.096 45.0289 311.383 46.178 310.832 47.557C310.28 48.89 310.004 50.4069 310.004 52.1076C310.004 53.8083 310.28 55.3482 310.832 56.7272C311.383 58.0602 312.096 59.1863 312.969 60.1056C313.888 61.025 314.945 61.7374 316.141 62.243C317.336 62.7487 318.6 63.0015 319.933 63.0015ZM359.025 34.1121C361.6 34.1121 363.967 34.5717 366.127 35.491C368.288 36.3644 370.149 37.6055 371.712 39.2143C373.275 40.8231 374.493 42.7306 375.366 44.937C376.24 47.1433 376.676 49.5335 376.676 52.1076C376.676 54.6817 376.24 57.0719 375.366 59.2783C374.493 61.4846 373.275 63.3922 371.712 65.001C370.149 66.6098 368.288 67.8738 366.127 68.7932C363.967 69.6665 361.6 70.1032 359.025 70.1032C356.451 70.1032 354.084 69.6665 351.924 68.7932C349.763 67.8738 347.902 66.6098 346.339 65.001C344.776 63.3922 343.558 61.4846 342.685 59.2783C341.811 57.0719 341.375 54.6817 341.375 52.1076C341.375 49.5335 341.811 47.1433 342.685 44.937C343.558 42.7306 344.776 40.8231 346.339 39.2143C347.902 37.6055 349.763 36.3644 351.924 35.491C354.084 34.5717 356.451 34.1121 359.025 34.1121ZM359.025 63.0015C360.313 63.0015 361.554 62.7487 362.749 62.243C363.944 61.7374 365.001 61.025 365.92 60.1056C366.886 59.1863 367.644 58.0602 368.196 56.7272C368.747 55.3482 369.023 53.8083 369.023 52.1076C369.023 50.4069 368.747 48.89 368.196 47.557C367.644 46.178 366.886 45.0289 365.92 44.1096C365.001 43.1903 363.944 42.4778 362.749 41.9722C361.554 41.4666 360.313 41.2138 359.025 41.2138C357.738 41.2138 356.497 41.4666 355.302 41.9722C354.107 42.4778 353.027 43.1903 352.062 44.1096C351.142 45.0289 350.407 46.178 349.855 47.557C349.304 48.89 349.028 50.4069 349.028 52.1076C349.028 53.8083 349.304 55.3482 349.855 56.7272C350.407 58.0602 351.142 59.1863 352.062 60.1056C353.027 61.025 354.107 61.7374 355.302 62.243C356.497 62.7487 357.738 63.0015 359.025 63.0015ZM386.232 29.2167C384.761 29.2167 383.52 28.7111 382.509 27.6999C381.544 26.6886 381.061 25.4705 381.061 24.0456C381.061 22.6207 381.544 21.4026 382.509 20.3913C383.52 19.3801 384.761 18.8744 386.232 18.8744C387.657 18.8744 388.852 19.3801 389.817 20.3913C390.829 21.4026 391.334 22.6207 391.334 24.0456C391.334 25.4705 390.829 26.6886 389.817 27.6999C388.852 28.7111 387.657 29.2167 386.232 29.2167ZM382.371 69V35.2152H390.024V69H382.371ZM405.555 39.7658H405.969C406.98 38.157 408.405 36.824 410.244 35.7668C412.129 34.6637 414.243 34.1121 416.587 34.1121C420.862 34.1121 424.057 35.3991 426.171 37.9732C428.285 40.5013 429.343 43.8798 429.343 48.1086V69H421.689V49.1428C421.689 46.201 421 44.1556 419.621 43.0064C418.288 41.8113 416.518 41.2138 414.312 41.2138C412.979 41.2138 411.807 41.4896 410.796 42.0411C409.784 42.5927 408.911 43.3512 408.175 44.3164C407.44 45.2358 406.888 46.3159 406.521 47.557C406.153 48.7521 405.969 50.0162 405.969 51.3492V69H398.316V35.2152H405.555V39.7658ZM438.735 41.9722H432.806V35.2152H438.735V24.873H446.389V35.2152H454.731V41.9722H446.389V57.003C446.389 57.8303 446.48 58.5888 446.664 59.2783C446.848 59.9677 447.124 60.5423 447.492 61.002C448.273 61.8753 449.261 62.312 450.457 62.312C451.192 62.312 451.767 62.266 452.18 62.1741C452.594 62.0362 453.031 61.8523 453.49 61.6225L455.834 68.3795C454.869 68.7472 453.858 69.023 452.801 69.2068C451.744 69.4367 450.548 69.5516 449.215 69.5516C447.607 69.5516 446.182 69.2988 444.941 68.7932C443.7 68.2875 442.619 67.598 441.7 66.7247C439.724 64.7482 438.735 62.0592 438.735 58.6577V41.9722ZM474.567 70.1032C472.499 70.1032 470.637 69.8274 468.983 69.2758C467.328 68.7242 465.88 68.0117 464.639 67.1384C463.398 66.2191 462.341 65.1849 461.467 64.0357C460.64 62.8866 459.996 61.6915 459.537 60.4504L466.432 57.5546C467.213 59.5311 468.339 61.002 469.81 61.9673C471.281 62.8866 472.867 63.3462 474.567 63.3462C476.498 63.3462 478.015 62.9555 479.118 62.1741C480.221 61.3927 480.773 60.5193 480.773 59.5541C480.773 58.5888 480.359 57.7614 479.532 57.0719C478.704 56.3365 477.142 55.6929 474.843 55.1414L470.017 53.9692C468.96 53.7394 467.879 53.3947 466.776 52.935C465.719 52.4294 464.731 51.8088 463.812 51.0734C462.892 50.292 462.134 49.3727 461.536 48.3155C460.985 47.2123 460.709 45.9252 460.709 44.4543C460.709 42.7996 461.054 41.3287 461.743 40.0416C462.479 38.7546 463.467 37.6744 464.708 36.8011C465.949 35.9277 467.374 35.2612 468.983 34.8015C470.637 34.3419 472.384 34.1121 474.223 34.1121C475.74 34.1121 477.188 34.2729 478.567 34.5947C479.991 34.9165 481.301 35.3991 482.497 36.0426C483.692 36.6861 484.749 37.5135 485.668 38.5248C486.633 39.49 487.392 40.6392 487.943 41.9722L481.187 44.7991C480.543 43.3282 479.532 42.271 478.153 41.6274C476.774 40.938 475.372 40.5932 473.947 40.5932C473.303 40.5932 472.637 40.6852 471.947 40.869C471.304 41.0069 470.706 41.2367 470.155 41.5585C469.649 41.8343 469.212 42.202 468.845 42.6617C468.523 43.1213 468.362 43.627 468.362 44.1785C468.362 45.0979 468.753 45.8333 469.534 46.3849C470.362 46.8905 471.603 47.3502 473.257 47.7639L478.429 49.0739C481.922 49.9472 484.473 51.2802 486.082 53.0729C487.737 54.8196 488.564 56.888 488.564 59.2783C488.564 60.7492 488.219 62.1281 487.53 63.4152C486.886 64.7022 485.944 65.8514 484.703 66.8626C483.462 67.8738 481.968 68.6553 480.221 69.2068C478.521 69.8044 476.636 70.1032 474.567 70.1032ZM505.627 35.2152H513.97L520.52 58.5888H520.796L528.38 35.2152H536.309L543.825 58.5888H544.1L550.582 35.2152H558.786L547.962 69H539.895L532.241 45.3507H531.965L524.519 69H516.452L505.627 35.2152ZM562.944 19.6329H570.597V34.3189L570.183 39.7658H570.597C571.562 38.157 572.987 36.824 574.872 35.7668C576.756 34.6637 578.848 34.1121 581.146 34.1121C583.353 34.1121 585.26 34.4568 586.869 35.1463C588.478 35.7898 589.811 36.7321 590.868 37.9732C591.925 39.2143 592.707 40.7081 593.212 42.4548C593.718 44.1556 593.971 46.0402 593.971 48.1086V69H586.317V49.1428C586.317 46.3389 585.628 44.3164 584.249 43.0754C582.916 41.8343 581.215 41.2138 579.147 41.2138C577.814 41.2138 576.619 41.5125 575.561 42.1101C574.55 42.6617 573.654 43.4201 572.872 44.3854C572.137 45.3507 571.562 46.4538 571.149 47.6949C570.781 48.936 570.597 50.223 570.597 51.556V69H562.944V19.6329ZM632.693 60.933C631.268 63.5531 629.246 65.7364 626.626 67.4831C624.006 69.2298 620.788 70.1032 616.973 70.1032C614.445 70.1032 612.101 69.6665 609.94 68.7932C607.826 67.8738 605.987 66.6098 604.424 65.001C602.862 63.3922 601.644 61.5076 600.77 59.3472C599.897 57.1409 599.46 54.7277 599.46 52.1076C599.46 49.6714 599.874 47.3732 600.701 45.2128C601.529 43.0064 602.678 41.0988 604.149 39.49C605.666 37.8353 607.481 36.5253 609.596 35.56C611.71 34.5947 614.054 34.1121 616.628 34.1121C619.248 34.1121 621.57 34.5487 623.592 35.4221C625.661 36.2954 627.407 37.5135 628.832 39.0764C630.257 40.6392 631.337 42.5238 632.073 44.7301C632.854 46.9365 633.245 49.3497 633.245 51.9697C633.245 52.1996 633.245 52.4064 633.245 52.5903C633.199 52.8201 633.176 53.0269 633.176 53.2108C633.13 53.3947 633.107 53.5785 633.107 53.7624H607.113C607.251 55.3712 607.642 56.7731 608.286 57.9682C608.929 59.1633 609.711 60.1516 610.63 60.933C611.595 61.7144 612.652 62.289 613.801 62.6567C614.951 63.0245 616.077 63.2083 617.18 63.2083C619.386 63.2083 621.202 62.6797 622.627 61.6225C624.052 60.5653 625.224 59.2553 626.143 57.6924L632.693 60.933ZM625.592 47.9018C625.5 47.2123 625.27 46.4538 624.902 45.6265C624.58 44.7531 624.052 43.9717 623.316 43.2822C622.627 42.5468 621.708 41.9262 620.558 41.4206C619.455 40.915 618.099 40.6622 616.49 40.6622C614.284 40.6622 612.377 41.3287 610.768 42.6617C609.205 43.9487 608.148 45.6954 607.596 47.9018H625.592ZM646.269 39.7658H646.683C647.694 38.157 649.119 36.824 650.958 35.7668C652.842 34.6637 654.957 34.1121 657.301 34.1121C661.576 34.1121 664.77 35.3991 666.885 37.9732C668.999 40.5013 670.056 43.8798 670.056 48.1086V69H662.403V49.1428C662.403 46.201 661.714 44.1556 660.335 43.0064C659.002 41.8113 657.232 41.2138 655.026 41.2138C653.693 41.2138 652.52 41.4896 651.509 42.0411C650.498 42.5927 649.625 43.3512 648.889 44.3164C648.154 45.2358 647.602 46.3159 647.234 47.557C646.867 48.7521 646.683 50.0162 646.683 51.3492V69H639.03V35.2152H646.269V39.7658ZM708.779 60.933C707.354 63.5531 705.332 65.7364 702.712 67.4831C700.092 69.2298 696.874 70.1032 693.059 70.1032C690.531 70.1032 688.186 69.6665 686.026 68.7932C683.912 67.8738 682.073 66.6098 680.51 65.001C678.947 63.3922 677.729 61.5076 676.856 59.3472C675.983 57.1409 675.546 54.7277 675.546 52.1076C675.546 49.6714 675.96 47.3732 676.787 45.2128C677.614 43.0064 678.763 41.0988 680.234 39.49C681.751 37.8353 683.567 36.5253 685.681 35.56C687.796 34.5947 690.14 34.1121 692.714 34.1121C695.334 34.1121 697.655 34.5487 699.678 35.4221C701.746 36.2954 703.493 37.5135 704.918 39.0764C706.343 40.6392 707.423 42.5238 708.158 44.7301C708.94 46.9365 709.331 49.3497 709.331 51.9697C709.331 52.1996 709.331 52.4064 709.331 52.5903C709.285 52.8201 709.262 53.0269 709.262 53.2108C709.216 53.3947 709.193 53.5785 709.193 53.7624H683.199C683.337 55.3712 683.728 56.7731 684.371 57.9682C685.015 59.1633 685.796 60.1516 686.716 60.933C687.681 61.7144 688.738 62.289 689.887 62.6567C691.036 63.0245 692.162 63.2083 693.266 63.2083C695.472 63.2083 697.288 62.6797 698.713 61.6225C700.137 60.5653 701.31 59.2553 702.229 57.6924L708.779 60.933ZM701.677 47.9018C701.585 47.2123 701.356 46.4538 700.988 45.6265C700.666 44.7531 700.137 43.9717 699.402 43.2822C698.713 42.5468 697.793 41.9262 696.644 41.4206C695.541 40.915 694.185 40.6622 692.576 40.6622C690.37 40.6622 688.462 41.3287 686.853 42.6617C685.291 43.9487 684.233 45.6954 683.682 47.9018H701.677ZM710.857 35.2152H719.475L728.576 59.0714H728.921L738.229 35.2152H746.641L732.506 69H724.853L710.857 35.2152ZM781.094 60.933C779.669 63.5531 777.647 65.7364 775.027 67.4831C772.407 69.2298 769.189 70.1032 765.374 70.1032C762.846 70.1032 760.502 69.6665 758.341 68.7932C756.227 67.8738 754.388 66.6098 752.825 65.001C751.262 63.3922 750.044 61.5076 749.171 59.3472C748.298 57.1409 747.861 54.7277 747.861 52.1076C747.861 49.6714 748.275 47.3732 749.102 45.2128C749.929 43.0064 751.079 41.0988 752.549 39.49C754.066 37.8353 755.882 36.5253 757.996 35.56C760.111 34.5947 762.455 34.1121 765.029 34.1121C767.649 34.1121 769.97 34.5487 771.993 35.4221C774.061 36.2954 775.808 37.5135 777.233 39.0764C778.658 40.6392 779.738 42.5238 780.474 44.7301C781.255 46.9365 781.646 49.3497 781.646 51.9697C781.646 52.1996 781.646 52.4064 781.646 52.5903C781.6 52.8201 781.577 53.0269 781.577 53.2108C781.531 53.3947 781.508 53.5785 781.508 53.7624H755.514C755.652 55.3712 756.043 56.7731 756.686 57.9682C757.33 59.1633 758.111 60.1516 759.031 60.933C759.996 61.7144 761.053 62.289 762.202 62.6567C763.351 63.0245 764.478 63.2083 765.581 63.2083C767.787 63.2083 769.603 62.6797 771.028 61.6225C772.453 60.5653 773.625 59.2553 774.544 57.6924L781.094 60.933ZM773.992 47.9018C773.901 47.2123 773.671 46.4538 773.303 45.6265C772.981 44.7531 772.453 43.9717 771.717 43.2822C771.028 42.5468 770.108 41.9262 768.959 41.4206C767.856 40.915 766.5 40.6622 764.891 40.6622C762.685 40.6622 760.777 41.3287 759.169 42.6617C757.606 43.9487 756.548 45.6954 755.997 47.9018H773.992ZM787.43 35.2152H794.67V40.3174H795.084C795.497 39.4441 796.049 38.6397 796.738 37.9042C797.474 37.1228 798.278 36.4793 799.152 35.9737C800.071 35.4221 801.013 35.0084 801.979 34.7326C802.99 34.4108 803.955 34.25 804.874 34.25C805.978 34.25 806.92 34.3419 807.701 34.5258C808.483 34.7096 809.195 34.9624 809.839 35.2842L807.632 42.3859C807.127 42.1561 806.552 41.9952 805.909 41.9032C805.311 41.7653 804.576 41.6964 803.702 41.6964C802.461 41.6964 801.312 41.9492 800.255 42.4548C799.244 42.9605 798.347 43.6499 797.566 44.5233C796.784 45.3966 796.164 46.4309 795.704 47.626C795.291 48.8211 795.084 50.0851 795.084 51.4181V69H787.43V35.2152ZM51.7576 159V117.079H37.9679V109.633H73.3384V117.079H59.5488V159H51.7576ZM89.0221 124.112C91.5962 124.112 93.9634 124.572 96.1238 125.491C98.2842 126.364 100.146 127.605 101.709 129.214C103.271 130.823 104.49 132.731 105.363 134.937C106.236 137.143 106.673 139.534 106.673 142.108C106.673 144.682 106.236 147.072 105.363 149.278C104.49 151.485 103.271 153.392 101.709 155.001C100.146 156.61 98.2842 157.874 96.1238 158.793C93.9634 159.667 91.5962 160.103 89.0221 160.103C86.448 160.103 84.0808 159.667 81.9204 158.793C79.76 157.874 77.8984 156.61 76.3356 155.001C74.7727 153.392 73.5546 151.485 72.6813 149.278C71.8079 147.072 71.3713 144.682 71.3713 142.108C71.3713 139.534 71.8079 137.143 72.6813 134.937C73.5546 132.731 74.7727 130.823 76.3356 129.214C77.8984 127.605 79.76 126.364 81.9204 125.491C84.0808 124.572 86.448 124.112 89.0221 124.112ZM89.0221 153.001C90.3091 153.001 91.5502 152.749 92.7453 152.243C93.9404 151.737 94.9976 151.025 95.9169 150.106C96.8822 149.186 97.6406 148.06 98.1922 146.727C98.7438 145.348 99.0196 143.808 99.0196 142.108C99.0196 140.407 98.7438 138.89 98.1922 137.557C97.6406 136.178 96.8822 135.029 95.9169 134.11C94.9976 133.19 93.9404 132.478 92.7453 131.972C91.5502 131.467 90.3091 131.214 89.0221 131.214C87.735 131.214 86.494 131.467 85.2989 131.972C84.1037 132.478 83.0236 133.19 82.0583 134.11C81.139 135.029 80.4035 136.178 79.8519 137.557C79.3003 138.89 79.0245 140.407 79.0245 142.108C79.0245 143.808 79.3003 145.348 79.8519 146.727C80.4035 148.06 81.139 149.186 82.0583 150.106C83.0236 151.025 84.1037 151.737 85.2989 152.243C86.494 152.749 87.735 153.001 89.0221 153.001ZM124.977 160.103C122.909 160.103 121.047 159.827 119.392 159.276C117.738 158.724 116.29 158.012 115.049 157.138C113.807 156.219 112.75 155.185 111.877 154.036C111.05 152.887 110.406 151.691 109.946 150.45L116.841 147.555C117.623 149.531 118.749 151.002 120.22 151.967C121.691 152.887 123.276 153.346 124.977 153.346C126.908 153.346 128.425 152.956 129.528 152.174C130.631 151.393 131.182 150.519 131.182 149.554C131.182 148.589 130.769 147.761 129.941 147.072C129.114 146.336 127.551 145.693 125.253 145.141L120.426 143.969C119.369 143.739 118.289 143.395 117.186 142.935C116.129 142.429 115.14 141.809 114.221 141.073C113.302 140.292 112.543 139.373 111.946 138.315C111.394 137.212 111.118 135.925 111.118 134.454C111.118 132.8 111.463 131.329 112.153 130.042C112.888 128.755 113.876 127.674 115.117 126.801C116.359 125.928 117.783 125.261 119.392 124.802C121.047 124.342 122.794 124.112 124.632 124.112C126.149 124.112 127.597 124.273 128.976 124.595C130.401 124.916 131.711 125.399 132.906 126.043C134.101 126.686 135.158 127.514 136.078 128.525C137.043 129.49 137.802 130.639 138.353 131.972L131.596 134.799C130.953 133.328 129.941 132.271 128.562 131.627C127.183 130.938 125.781 130.593 124.357 130.593C123.713 130.593 123.047 130.685 122.357 130.869C121.714 131.007 121.116 131.237 120.564 131.559C120.059 131.834 119.622 132.202 119.254 132.662C118.933 133.121 118.772 133.627 118.772 134.179C118.772 135.098 119.162 135.833 119.944 136.385C120.771 136.891 122.012 137.35 123.667 137.764L128.838 139.074C132.332 139.947 134.883 141.28 136.491 143.073C138.146 144.82 138.974 146.888 138.974 149.278C138.974 150.749 138.629 152.128 137.939 153.415C137.296 154.702 136.354 155.851 135.113 156.863C133.871 157.874 132.378 158.655 130.631 159.207C128.93 159.804 127.046 160.103 124.977 160.103ZM157.297 160.103C155.228 160.103 153.367 159.827 151.712 159.276C150.057 158.724 148.609 158.012 147.368 157.138C146.127 156.219 145.07 155.185 144.196 154.036C143.369 152.887 142.726 151.691 142.266 150.45L149.161 147.555C149.942 149.531 151.068 151.002 152.539 151.967C154.01 152.887 155.596 153.346 157.297 153.346C159.227 153.346 160.744 152.956 161.847 152.174C162.95 151.393 163.502 150.519 163.502 149.554C163.502 148.589 163.088 147.761 162.261 147.072C161.434 146.336 159.871 145.693 157.572 145.141L152.746 143.969C151.689 143.739 150.609 143.395 149.506 142.935C148.448 142.429 147.46 141.809 146.541 141.073C145.621 140.292 144.863 139.373 144.265 138.315C143.714 137.212 143.438 135.925 143.438 134.454C143.438 132.8 143.783 131.329 144.472 130.042C145.208 128.755 146.196 127.674 147.437 126.801C148.678 125.928 150.103 125.261 151.712 124.802C153.367 124.342 155.113 124.112 156.952 124.112C158.469 124.112 159.917 124.273 161.296 124.595C162.721 124.916 164.031 125.399 165.226 126.043C166.421 126.686 167.478 127.514 168.397 128.525C169.363 129.49 170.121 130.639 170.673 131.972L163.916 134.799C163.272 133.328 162.261 132.271 160.882 131.627C159.503 130.938 158.101 130.593 156.676 130.593C156.033 130.593 155.366 130.685 154.677 130.869C154.033 131.007 153.436 131.237 152.884 131.559C152.378 131.834 151.942 132.202 151.574 132.662C151.252 133.121 151.091 133.627 151.091 134.179C151.091 135.098 151.482 135.833 152.263 136.385C153.091 136.891 154.332 137.35 155.987 137.764L161.158 139.074C164.651 139.947 167.202 141.28 168.811 143.073C170.466 144.82 171.293 146.888 171.293 149.278C171.293 150.749 170.948 152.128 170.259 153.415C169.615 154.702 168.673 155.851 167.432 156.863C166.191 157.874 164.697 158.655 162.95 159.207C161.25 159.804 159.365 160.103 157.297 160.103ZM215.453 154.449H215.039C214.028 156.058 212.58 157.414 210.696 158.517C208.857 159.575 206.766 160.103 204.421 160.103C200.147 160.103 196.952 158.839 194.838 156.311C192.723 153.737 191.666 150.335 191.666 146.107V125.215H199.319V145.072C199.319 148.014 199.986 150.083 201.319 151.278C202.698 152.427 204.49 153.001 206.697 153.001C207.984 153.001 209.133 152.726 210.144 152.174C211.201 151.623 212.098 150.887 212.833 149.968C213.569 149.002 214.12 147.922 214.488 146.727C214.856 145.486 215.039 144.199 215.039 142.866V125.215H222.693V159H215.453V154.449ZM242.876 160.103C240.808 160.103 238.946 159.827 237.291 159.276C235.637 158.724 234.189 158.012 232.948 157.138C231.707 156.219 230.649 155.185 229.776 154.036C228.949 152.887 228.305 151.691 227.846 150.45L234.74 147.555C235.522 149.531 236.648 151.002 238.119 151.967C239.59 152.887 241.176 153.346 242.876 153.346C244.807 153.346 246.324 152.956 247.427 152.174C248.53 151.393 249.082 150.519 249.082 149.554C249.082 148.589 248.668 147.761 247.841 147.072C247.013 146.336 245.45 145.693 243.152 145.141L238.326 143.969C237.269 143.739 236.188 143.395 235.085 142.935C234.028 142.429 233.04 141.809 232.12 141.073C231.201 140.292 230.443 139.373 229.845 138.315C229.293 137.212 229.018 135.925 229.018 134.454C229.018 132.8 229.362 131.329 230.052 130.042C230.787 128.755 231.776 127.674 233.017 126.801C234.258 125.928 235.683 125.261 237.291 124.802C238.946 124.342 240.693 124.112 242.532 124.112C244.048 124.112 245.496 124.273 246.875 124.595C248.3 124.916 249.61 125.399 250.805 126.043C252 126.686 253.058 127.514 253.977 128.525C254.942 129.49 255.701 130.639 256.252 131.972L249.495 134.799C248.852 133.328 247.841 132.271 246.462 131.627C245.083 130.938 243.681 130.593 242.256 130.593C241.612 130.593 240.946 130.685 240.256 130.869C239.613 131.007 239.015 131.237 238.464 131.559C237.958 131.834 237.521 132.202 237.154 132.662C236.832 133.121 236.671 133.627 236.671 134.179C236.671 135.098 237.062 135.833 237.843 136.385C238.67 136.891 239.912 137.35 241.566 137.764L246.737 139.074C250.231 139.947 252.782 141.28 254.391 143.073C256.045 144.82 256.873 146.888 256.873 149.278C256.873 150.749 256.528 152.128 255.839 153.415C255.195 154.702 254.253 155.851 253.012 156.863C251.771 157.874 250.277 158.655 248.53 159.207C246.829 159.804 244.945 160.103 242.876 160.103ZM294.011 150.933C292.586 153.553 290.563 155.736 287.943 157.483C285.323 159.23 282.106 160.103 278.291 160.103C275.762 160.103 273.418 159.667 271.258 158.793C269.143 157.874 267.305 156.61 265.742 155.001C264.179 153.392 262.961 151.508 262.088 149.347C261.214 147.141 260.778 144.728 260.778 142.108C260.778 139.671 261.191 137.373 262.019 135.213C262.846 133.006 263.995 131.099 265.466 129.49C266.983 127.835 268.799 126.525 270.913 125.56C273.027 124.595 275.372 124.112 277.946 124.112C280.566 124.112 282.887 124.549 284.91 125.422C286.978 126.295 288.725 127.514 290.15 129.076C291.575 130.639 292.655 132.524 293.39 134.73C294.172 136.936 294.562 139.35 294.562 141.97C294.562 142.2 294.562 142.406 294.562 142.59C294.516 142.82 294.493 143.027 294.493 143.211C294.447 143.395 294.424 143.579 294.424 143.762H268.431C268.569 145.371 268.959 146.773 269.603 147.968C270.247 149.163 271.028 150.152 271.947 150.933C272.913 151.714 273.97 152.289 275.119 152.657C276.268 153.024 277.394 153.208 278.497 153.208C280.704 153.208 282.519 152.68 283.944 151.623C285.369 150.565 286.541 149.255 287.461 147.692L294.011 150.933ZM286.909 137.902C286.817 137.212 286.587 136.454 286.22 135.626C285.898 134.753 285.369 133.972 284.634 133.282C283.944 132.547 283.025 131.926 281.876 131.421C280.773 130.915 279.417 130.662 277.808 130.662C275.602 130.662 273.694 131.329 272.085 132.662C270.522 133.949 269.465 135.695 268.914 137.902H286.909ZM300.347 125.215H307.587V130.317H308C308.414 129.444 308.966 128.64 309.655 127.904C310.391 127.123 311.195 126.479 312.068 125.974C312.988 125.422 313.93 125.008 314.895 124.733C315.906 124.411 316.872 124.25 317.791 124.25C318.894 124.25 319.836 124.342 320.618 124.526C321.399 124.71 322.112 124.962 322.755 125.284L320.549 132.386C320.043 132.156 319.469 131.995 318.825 131.903C318.228 131.765 317.492 131.696 316.619 131.696C315.378 131.696 314.229 131.949 313.171 132.455C312.16 132.96 311.264 133.65 310.482 134.523C309.701 135.397 309.08 136.431 308.621 137.626C308.207 138.821 308 140.085 308 141.418V159H300.347V125.215ZM338.354 160.103C336.285 160.103 334.424 159.827 332.769 159.276C331.114 158.724 329.666 158.012 328.425 157.138C327.184 156.219 326.127 155.185 325.254 154.036C324.426 152.887 323.783 151.691 323.323 150.45L330.218 147.555C330.999 149.531 332.125 151.002 333.596 151.967C335.067 152.887 336.653 153.346 338.354 153.346C340.284 153.346 341.801 152.956 342.904 152.174C344.008 151.393 344.559 150.519 344.559 149.554C344.559 148.589 344.145 147.761 343.318 147.072C342.491 146.336 340.928 145.693 338.63 145.141L333.803 143.969C332.746 143.739 331.666 143.395 330.563 142.935C329.505 142.429 328.517 141.809 327.598 141.073C326.679 140.292 325.92 139.373 325.323 138.315C324.771 137.212 324.495 135.925 324.495 134.454C324.495 132.8 324.84 131.329 325.529 130.042C326.265 128.755 327.253 127.674 328.494 126.801C329.735 125.928 331.16 125.261 332.769 124.802C334.424 124.342 336.17 124.112 338.009 124.112C339.526 124.112 340.974 124.273 342.353 124.595C343.778 124.916 345.088 125.399 346.283 126.043C347.478 126.686 348.535 127.514 349.455 128.525C350.42 129.49 351.178 130.639 351.73 131.972L344.973 134.799C344.329 133.328 343.318 132.271 341.939 131.627C340.56 130.938 339.158 130.593 337.733 130.593C337.09 130.593 336.423 130.685 335.734 130.869C335.09 131.007 334.493 131.237 333.941 131.559C333.435 131.834 332.999 132.202 332.631 132.662C332.309 133.121 332.148 133.627 332.148 134.179C332.148 135.098 332.539 135.833 333.321 136.385C334.148 136.891 335.389 137.35 337.044 137.764L342.215 139.074C345.708 139.947 348.259 141.28 349.868 143.073C351.523 144.82 352.35 146.888 352.35 149.278C352.35 150.749 352.006 152.128 351.316 153.415C350.673 154.702 349.73 155.851 348.489 156.863C347.248 157.874 345.754 158.655 344.008 159.207C342.307 159.804 340.422 160.103 338.354 160.103ZM394.373 154.863H393.959C392.948 156.196 391.638 157.414 390.029 158.517C388.42 159.575 386.375 160.103 383.893 160.103C382.1 160.103 380.422 159.804 378.859 159.207C377.297 158.655 375.941 157.874 374.791 156.863C373.642 155.805 372.723 154.587 372.034 153.208C371.39 151.783 371.068 150.221 371.068 148.52C371.068 146.727 371.413 145.118 372.102 143.693C372.838 142.268 373.826 141.073 375.067 140.108C376.354 139.143 377.871 138.407 379.618 137.902C381.365 137.35 383.249 137.074 385.272 137.074C387.524 137.074 389.409 137.304 390.925 137.764C392.442 138.178 393.591 138.568 394.373 138.936V137.626C394.373 136.615 394.143 135.672 393.683 134.799C393.27 133.926 392.672 133.19 391.891 132.593C391.155 131.949 390.305 131.467 389.34 131.145C388.374 130.777 387.363 130.593 386.306 130.593C384.605 130.593 383.065 130.938 381.686 131.627C380.353 132.271 379.158 133.328 378.101 134.799L372.034 130.8C373.642 128.594 375.642 126.939 378.032 125.836C380.422 124.687 383.134 124.112 386.168 124.112C391.178 124.112 395.039 125.353 397.751 127.835C400.509 130.317 401.888 133.857 401.888 138.453V159H394.373V154.863ZM394.373 144.935C393.362 144.337 392.235 143.854 390.994 143.487C389.753 143.119 388.328 142.935 386.72 142.935C384.329 142.935 382.422 143.487 380.997 144.59C379.572 145.693 378.859 147.026 378.859 148.589C378.859 149.416 379.043 150.152 379.411 150.795C379.779 151.393 380.238 151.921 380.79 152.381C381.388 152.841 382.054 153.185 382.789 153.415C383.571 153.645 384.352 153.76 385.134 153.76C386.375 153.76 387.547 153.53 388.65 153.07C389.799 152.565 390.788 151.921 391.615 151.14C392.442 150.312 393.109 149.37 393.614 148.313C394.12 147.256 394.373 146.13 394.373 144.935ZM408.813 125.215H416.053V129.559H416.467C417.386 128.088 418.788 126.824 420.672 125.767C422.557 124.664 424.809 124.112 427.429 124.112C429.59 124.112 431.635 124.572 433.566 125.491C435.542 126.364 437.266 127.605 438.737 129.214C440.208 130.823 441.38 132.731 442.253 134.937C443.127 137.097 443.563 139.488 443.563 142.108C443.563 144.728 443.127 147.141 442.253 149.347C441.38 151.508 440.208 153.392 438.737 155.001C437.266 156.61 435.542 157.874 433.566 158.793C431.635 159.667 429.59 160.103 427.429 160.103C424.809 160.103 422.557 159.575 420.672 158.517C418.788 157.414 417.386 156.127 416.467 154.656H416.053L416.467 159.345V173.893H408.813V125.215ZM425.981 153.001C427.268 153.001 428.51 152.749 429.705 152.243C430.946 151.737 432.003 151.025 432.876 150.106C433.796 149.14 434.531 147.991 435.083 146.658C435.634 145.325 435.91 143.808 435.91 142.108C435.91 140.407 435.634 138.89 435.083 137.557C434.531 136.224 433.796 135.098 432.876 134.179C432.003 133.213 430.946 132.478 429.705 131.972C428.51 131.467 427.268 131.214 425.981 131.214C424.648 131.214 423.384 131.467 422.189 131.972C420.994 132.478 419.937 133.19 419.018 134.11C418.144 135.029 417.432 136.178 416.88 137.557C416.329 138.89 416.053 140.407 416.053 142.108C416.053 143.808 416.329 145.348 416.88 146.727C417.432 148.06 418.144 149.186 419.018 150.106C419.937 151.025 420.994 151.737 422.189 152.243C423.384 152.749 424.648 153.001 425.981 153.001ZM448.405 125.215H455.644V129.559H456.058C456.977 128.088 458.379 126.824 460.264 125.767C462.148 124.664 464.401 124.112 467.021 124.112C469.181 124.112 471.227 124.572 473.157 125.491C475.134 126.364 476.857 127.605 478.328 129.214C479.799 130.823 480.971 132.731 481.845 134.937C482.718 137.097 483.155 139.488 483.155 142.108C483.155 144.728 482.718 147.141 481.845 149.347C480.971 151.508 479.799 153.392 478.328 155.001C476.857 156.61 475.134 157.874 473.157 158.793C471.227 159.667 469.181 160.103 467.021 160.103C464.401 160.103 462.148 159.575 460.264 158.517C458.379 157.414 456.977 156.127 456.058 154.656H455.644L456.058 159.345V173.893H448.405V125.215ZM465.573 153.001C466.86 153.001 468.101 152.749 469.296 152.243C470.537 151.737 471.594 151.025 472.468 150.106C473.387 149.14 474.123 147.991 474.674 146.658C475.226 145.325 475.502 143.808 475.502 142.108C475.502 140.407 475.226 138.89 474.674 137.557C474.123 136.224 473.387 135.098 472.468 134.179C471.594 133.213 470.537 132.478 469.296 131.972C468.101 131.467 466.86 131.214 465.573 131.214C464.24 131.214 462.976 131.467 461.781 131.972C460.586 132.478 459.528 133.19 458.609 134.11C457.736 135.029 457.023 136.178 456.472 137.557C455.92 138.89 455.644 140.407 455.644 142.108C455.644 143.808 455.92 145.348 456.472 146.727C457.023 148.06 457.736 149.186 458.609 150.106C459.528 151.025 460.586 151.737 461.781 152.243C462.976 152.749 464.24 153.001 465.573 153.001ZM520.248 150.933C518.823 153.553 516.801 155.736 514.181 157.483C511.56 159.23 508.343 160.103 504.528 160.103C502 160.103 499.655 159.667 497.495 158.793C495.381 157.874 493.542 156.61 491.979 155.001C490.416 153.392 489.198 151.508 488.325 149.347C487.451 147.141 487.015 144.728 487.015 142.108C487.015 139.671 487.429 137.373 488.256 135.213C489.083 133.006 490.232 131.099 491.703 129.49C493.22 127.835 495.036 126.525 497.15 125.56C499.265 124.595 501.609 124.112 504.183 124.112C506.803 124.112 509.124 124.549 511.147 125.422C513.215 126.295 514.962 127.514 516.387 129.076C517.812 130.639 518.892 132.524 519.627 134.73C520.409 136.936 520.8 139.35 520.8 141.97C520.8 142.2 520.8 142.406 520.8 142.59C520.754 142.82 520.731 143.027 520.731 143.211C520.685 143.395 520.662 143.579 520.662 143.762H494.668C494.806 145.371 495.197 146.773 495.84 147.968C496.484 149.163 497.265 150.152 498.184 150.933C499.15 151.714 500.207 152.289 501.356 152.657C502.505 153.024 503.631 153.208 504.735 153.208C506.941 153.208 508.757 152.68 510.182 151.623C511.606 150.565 512.779 149.255 513.698 147.692L520.248 150.933ZM513.146 137.902C513.054 137.212 512.825 136.454 512.457 135.626C512.135 134.753 511.606 133.972 510.871 133.282C510.182 132.547 509.262 131.926 508.113 131.421C507.01 130.915 505.654 130.662 504.045 130.662C501.839 130.662 499.931 131.329 498.322 132.662C496.76 133.949 495.702 135.695 495.151 137.902H513.146ZM548.295 154.863H547.881C546.87 156.196 545.56 157.414 543.951 158.517C542.342 159.575 540.297 160.103 537.815 160.103C536.022 160.103 534.344 159.804 532.782 159.207C531.219 158.655 529.863 157.874 528.714 156.863C527.564 155.805 526.645 154.587 525.956 153.208C525.312 151.783 524.99 150.221 524.99 148.52C524.99 146.727 525.335 145.118 526.025 143.693C526.76 142.268 527.748 141.073 528.989 140.108C530.276 139.143 531.793 138.407 533.54 137.902C535.287 137.35 537.171 137.074 539.194 137.074C541.446 137.074 543.331 137.304 544.848 137.764C546.364 138.178 547.514 138.568 548.295 138.936V137.626C548.295 136.615 548.065 135.672 547.605 134.799C547.192 133.926 546.594 133.19 545.813 132.593C545.077 131.949 544.227 131.467 543.262 131.145C542.296 130.777 541.285 130.593 540.228 130.593C538.527 130.593 536.987 130.938 535.608 131.627C534.275 132.271 533.08 133.328 532.023 134.799L525.956 130.8C527.564 128.594 529.564 126.939 531.954 125.836C534.344 124.687 537.056 124.112 540.09 124.112C545.1 124.112 548.961 125.353 551.673 127.835C554.431 130.317 555.81 133.857 555.81 138.453V159H548.295V154.863ZM548.295 144.935C547.284 144.337 546.158 143.854 544.916 143.487C543.675 143.119 542.25 142.935 540.642 142.935C538.251 142.935 536.344 143.487 534.919 144.59C533.494 145.693 532.782 147.026 532.782 148.589C532.782 149.416 532.965 150.152 533.333 150.795C533.701 151.393 534.161 151.921 534.712 152.381C535.31 152.841 535.976 153.185 536.712 153.415C537.493 153.645 538.274 153.76 539.056 153.76C540.297 153.76 541.469 153.53 542.572 153.07C543.721 152.565 544.71 151.921 545.537 151.14C546.364 150.312 547.031 149.37 547.537 148.313C548.042 147.256 548.295 146.13 548.295 144.935ZM563.011 125.215H570.251V130.317H570.664C571.078 129.444 571.63 128.64 572.319 127.904C573.055 127.123 573.859 126.479 574.732 125.974C575.652 125.422 576.594 125.008 577.559 124.733C578.571 124.411 579.536 124.25 580.455 124.25C581.558 124.25 582.501 124.342 583.282 124.526C584.063 124.71 584.776 124.962 585.419 125.284L583.213 132.386C582.707 132.156 582.133 131.995 581.489 131.903C580.892 131.765 580.156 131.696 579.283 131.696C578.042 131.696 576.893 131.949 575.836 132.455C574.824 132.96 573.928 133.65 573.147 134.523C572.365 135.397 571.745 136.431 571.285 137.626C570.871 138.821 570.664 140.085 570.664 141.418V159H563.011V125.215ZM611.93 129.766H612.343C613.354 128.157 614.779 126.824 616.618 125.767C618.503 124.664 620.617 124.112 622.961 124.112C627.236 124.112 630.431 125.399 632.545 127.973C634.66 130.501 635.717 133.88 635.717 138.109V159H628.064V139.143C628.064 136.201 627.374 134.156 625.995 133.006C624.662 131.811 622.892 131.214 620.686 131.214C619.353 131.214 618.181 131.49 617.17 132.041C616.158 132.593 615.285 133.351 614.55 134.316C613.814 135.236 613.263 136.316 612.895 137.557C612.527 138.752 612.343 140.016 612.343 141.349V159H604.69V125.215H611.93V129.766ZM674.439 150.933C673.014 153.553 670.992 155.736 668.372 157.483C665.752 159.23 662.534 160.103 658.719 160.103C656.191 160.103 653.847 159.667 651.686 158.793C649.572 157.874 647.733 156.61 646.171 155.001C644.608 153.392 643.39 151.508 642.516 149.347C641.643 147.141 641.206 144.728 641.206 142.108C641.206 139.671 641.62 137.373 642.447 135.213C643.275 133.006 644.424 131.099 645.895 129.49C647.412 127.835 649.227 126.525 651.342 125.56C653.456 124.595 655.8 124.112 658.374 124.112C660.994 124.112 663.316 124.549 665.338 125.422C667.407 126.295 669.153 127.514 670.578 129.076C672.003 130.639 673.083 132.524 673.819 134.73C674.6 136.936 674.991 139.35 674.991 141.97C674.991 142.2 674.991 142.406 674.991 142.59C674.945 142.82 674.922 143.027 674.922 143.211C674.876 143.395 674.853 143.579 674.853 143.762H648.86C648.997 145.371 649.388 146.773 650.032 147.968C650.675 149.163 651.457 150.152 652.376 150.933C653.341 151.714 654.398 152.289 655.548 152.657C656.697 153.024 657.823 153.208 658.926 153.208C661.132 153.208 662.948 152.68 664.373 151.623C665.798 150.565 666.97 149.255 667.889 147.692L674.439 150.933ZM667.338 137.902C667.246 137.212 667.016 136.454 666.648 135.626C666.326 134.753 665.798 133.972 665.062 133.282C664.373 132.547 663.454 131.926 662.304 131.421C661.201 130.915 659.845 130.662 658.237 130.662C656.03 130.662 654.123 131.329 652.514 132.662C650.951 133.949 649.894 135.695 649.342 137.902H667.338ZM702.486 154.863H702.073C701.061 156.196 699.751 157.414 698.143 158.517C696.534 159.575 694.488 160.103 692.006 160.103C690.214 160.103 688.536 159.804 686.973 159.207C685.41 158.655 684.054 157.874 682.905 156.863C681.756 155.805 680.837 154.587 680.147 153.208C679.504 151.783 679.182 150.221 679.182 148.52C679.182 146.727 679.527 145.118 680.216 143.693C680.951 142.268 681.94 141.073 683.181 140.108C684.468 139.143 685.985 138.407 687.731 137.902C689.478 137.35 691.363 137.074 693.385 137.074C695.637 137.074 697.522 137.304 699.039 137.764C700.556 138.178 701.705 138.568 702.486 138.936V137.626C702.486 136.615 702.257 135.672 701.797 134.799C701.383 133.926 700.786 133.19 700.004 132.593C699.269 131.949 698.418 131.467 697.453 131.145C696.488 130.777 695.477 130.593 694.419 130.593C692.719 130.593 691.179 130.938 689.8 131.627C688.467 132.271 687.272 133.328 686.215 134.799L680.147 130.8C681.756 128.594 683.755 126.939 686.146 125.836C688.536 124.687 691.248 124.112 694.281 124.112C699.292 124.112 703.153 125.353 705.865 127.835C708.623 130.317 710.002 133.857 710.002 138.453V159H702.486V154.863ZM702.486 144.935C701.475 144.337 700.349 143.854 699.108 143.487C697.867 143.119 696.442 142.935 694.833 142.935C692.443 142.935 690.535 143.487 689.11 144.59C687.685 145.693 686.973 147.026 686.973 148.589C686.973 149.416 687.157 150.152 687.525 150.795C687.892 151.393 688.352 151.921 688.904 152.381C689.501 152.841 690.168 153.185 690.903 153.415C691.684 153.645 692.466 153.76 693.247 153.76C694.488 153.76 695.66 153.53 696.764 153.07C697.913 152.565 698.901 151.921 699.728 151.14C700.556 150.312 701.222 149.37 701.728 148.313C702.234 147.256 702.486 146.13 702.486 144.935ZM717.203 125.215H724.442V130.317H724.856C725.27 129.444 725.821 128.64 726.511 127.904C727.246 127.123 728.051 126.479 728.924 125.974C729.843 125.422 730.785 125.008 731.751 124.733C732.762 124.411 733.727 124.25 734.647 124.25C735.75 124.25 736.692 124.342 737.473 124.526C738.255 124.71 738.967 124.962 739.611 125.284L737.405 132.386C736.899 132.156 736.324 131.995 735.681 131.903C735.083 131.765 734.348 131.696 733.474 131.696C732.233 131.696 731.084 131.949 730.027 132.455C729.016 132.96 728.119 133.65 727.338 134.523C726.557 135.397 725.936 136.431 725.476 137.626C725.063 138.821 724.856 140.085 724.856 141.418V159H717.203V125.215ZM744.068 109.633H751.722V124.87L751.308 129.559H751.722C752.641 128.088 754.043 126.824 755.927 125.767C757.812 124.664 760.064 124.112 762.684 124.112C764.845 124.112 766.89 124.572 768.821 125.491C770.797 126.364 772.521 127.605 773.992 129.214C775.463 130.823 776.635 132.731 777.508 134.937C778.382 137.097 778.818 139.488 778.818 142.108C778.818 144.728 778.382 147.141 777.508 149.347C776.635 151.508 775.463 153.392 773.992 155.001C772.521 156.61 770.797 157.874 768.821 158.793C766.89 159.667 764.845 160.103 762.684 160.103C760.064 160.103 757.812 159.575 755.927 158.517C754.043 157.414 752.641 156.127 751.722 154.656H751.308V159H744.068V109.633ZM761.236 153.001C762.523 153.001 763.765 152.749 764.96 152.243C766.201 151.737 767.258 151.025 768.131 150.106C769.051 149.14 769.786 147.991 770.338 146.658C770.889 145.325 771.165 143.808 771.165 142.108C771.165 140.407 770.889 138.89 770.338 137.557C769.786 136.224 769.051 135.098 768.131 134.179C767.258 133.213 766.201 132.478 764.96 131.972C763.765 131.467 762.523 131.214 761.236 131.214C759.903 131.214 758.639 131.467 757.444 131.972C756.249 132.478 755.192 133.19 754.273 134.11C753.399 135.029 752.687 136.178 752.135 137.557C751.584 138.89 751.308 140.407 751.308 142.108C751.308 143.808 751.584 145.348 752.135 146.727C752.687 148.06 753.399 149.186 754.273 150.106C755.192 151.025 756.249 151.737 757.444 152.243C758.639 152.749 759.903 153.001 761.236 153.001ZM793.736 157.069L779.67 125.215H788.22L797.528 147.623H797.873L806.905 125.215H815.386L794.219 173.893H786.083L793.736 157.069Z" fill="black"/>
</svg>
