<svg width="561" height="224" viewBox="0 0 561 224" fill="none" xmlns="http://www.w3.org/2000/svg">
<g filter="url(#filter0_d_6232_2977)">
<rect x="42.8247" y="40.1133" width="475" height="137.553" rx="68.7767" fill="white"/>
<rect x="84.1587" y="80.6973" width="56.3084" height="57.0905" rx="28.1542" fill="#3182F6"/>
<path d="M109.978 103.298V111.707C109.978 111.869 110.071 111.974 110.257 112.021C111.141 112.137 112.002 112.195 112.839 112.195C114.723 112.195 116.154 111.788 117.131 110.974C118.131 110.136 118.631 108.95 118.631 107.415C118.631 104.321 116.701 102.774 112.839 102.774C112.002 102.774 111.141 102.832 110.257 102.949C110.071 102.995 109.978 103.112 109.978 103.298ZM107.117 124.791C106.582 124.791 106.117 124.593 105.721 124.198C105.349 123.802 105.163 123.337 105.163 122.802V101.483C105.163 100.925 105.349 100.425 105.721 99.9829C106.093 99.5409 106.559 99.2967 107.117 99.2501C109.094 99.064 111.002 98.971 112.839 98.971C116.328 98.971 118.945 99.6688 120.69 101.065C122.434 102.437 123.307 104.437 123.307 107.066C123.307 109.974 122.458 112.172 120.76 113.66C119.085 115.149 116.596 115.894 113.293 115.894C112.525 115.894 111.513 115.847 110.257 115.754C110.071 115.754 109.978 115.847 109.978 116.033V122.802C109.978 123.337 109.78 123.802 109.385 124.198C108.989 124.593 108.524 124.791 107.989 124.791H107.117Z" fill="white"/>
<path d="M177.226 113.002L165.115 93.7558H173.206L180.392 105.666H180.794L187.729 93.7558H195.92L184.01 113.002V129.736H177.226V113.002ZM205.976 104.309C207.885 104.309 209.627 104.644 211.202 105.314C212.81 105.95 214.184 106.855 215.323 108.027C216.495 109.166 217.4 110.54 218.036 112.148C218.706 113.756 219.041 115.515 219.041 117.425C219.041 119.334 218.706 121.093 218.036 122.701C217.4 124.309 216.495 125.699 215.323 126.872C214.184 128.011 212.81 128.916 211.202 129.586C209.627 130.222 207.885 130.54 205.976 130.54C204.066 130.54 202.307 130.222 200.699 129.586C199.125 128.916 197.751 128.011 196.579 126.872C195.44 125.699 194.535 124.309 193.865 122.701C193.228 121.093 192.91 119.334 192.91 117.425C192.91 115.515 193.228 113.756 193.865 112.148C194.535 110.54 195.44 109.166 196.579 108.027C197.751 106.855 199.125 105.95 200.699 105.314C202.307 104.644 204.066 104.309 205.976 104.309ZM205.976 124.46C206.813 124.46 207.617 124.309 208.388 124.008C209.192 123.673 209.895 123.204 210.498 122.601C211.101 121.997 211.57 121.26 211.905 120.389C212.274 119.518 212.458 118.53 212.458 117.425C212.458 116.319 212.274 115.331 211.905 114.46C211.57 113.589 211.101 112.852 210.498 112.249C209.895 111.646 209.192 111.193 208.388 110.892C207.617 110.557 206.813 110.389 205.976 110.389C205.105 110.389 204.284 110.557 203.513 110.892C202.743 111.193 202.056 111.646 201.453 112.249C200.85 112.852 200.364 113.589 199.996 114.46C199.661 115.331 199.493 116.319 199.493 117.425C199.493 118.53 199.661 119.518 199.996 120.389C200.364 121.26 200.85 121.997 201.453 122.601C202.056 123.204 202.743 123.673 203.513 124.008C204.284 124.309 205.105 124.46 205.976 124.46ZM240.061 126.52H239.659C238.889 127.76 237.85 128.748 236.544 129.485C235.237 130.189 233.746 130.54 232.071 130.54C228.956 130.54 226.627 129.586 225.086 127.676C223.579 125.766 222.825 123.22 222.825 120.038V105.113H229.408V119.234C229.408 121.009 229.793 122.333 230.564 123.204C231.368 124.041 232.523 124.46 234.031 124.46C234.936 124.46 235.723 124.276 236.393 123.907C237.096 123.505 237.683 122.986 238.152 122.349C238.654 121.679 239.023 120.909 239.257 120.038C239.525 119.133 239.659 118.178 239.659 117.173V105.113H246.242V129.736H240.061V126.52ZM274.28 141.395C272.538 141.395 270.98 141.16 269.607 140.691C268.267 140.256 267.094 139.67 266.089 138.932C265.084 138.229 264.247 137.442 263.576 136.571C262.906 135.7 262.421 134.829 262.119 133.958L268.401 131.445C268.87 132.751 269.64 133.757 270.712 134.46C271.784 135.197 272.974 135.566 274.28 135.566C276.357 135.566 277.999 134.912 279.205 133.606C280.411 132.333 281.014 130.54 281.014 128.229V126.52H280.612C279.841 127.592 278.82 128.447 277.547 129.083C276.307 129.686 274.833 129.988 273.124 129.988C271.65 129.988 270.21 129.686 268.803 129.083C267.429 128.48 266.206 127.626 265.134 126.52C264.062 125.381 263.191 124.024 262.521 122.45C261.851 120.875 261.516 119.116 261.516 117.173C261.516 115.23 261.851 113.471 262.521 111.897C263.191 110.289 264.062 108.932 265.134 107.826C266.206 106.687 267.429 105.816 268.803 105.213C270.21 104.61 271.65 104.309 273.124 104.309C274.833 104.309 276.307 104.627 277.547 105.264C278.82 105.867 279.841 106.704 280.612 107.776H281.014V105.113H287.296V127.978C287.296 130.055 286.977 131.914 286.341 133.555C285.704 135.231 284.816 136.638 283.677 137.777C282.538 138.949 281.165 139.837 279.557 140.44C277.982 141.077 276.223 141.395 274.28 141.395ZM274.531 124.058C275.335 124.058 276.123 123.907 276.893 123.606C277.697 123.304 278.401 122.869 279.004 122.299C279.607 121.696 280.093 120.976 280.461 120.138C280.83 119.267 281.014 118.279 281.014 117.173C281.014 116.068 280.83 115.079 280.461 114.208C280.093 113.337 279.607 112.617 279.004 112.048C278.401 111.445 277.697 110.992 276.893 110.691C276.123 110.389 275.335 110.238 274.531 110.238C273.727 110.238 272.94 110.389 272.17 110.691C271.399 110.992 270.712 111.445 270.109 112.048C269.506 112.651 269.02 113.388 268.652 114.259C268.283 115.096 268.099 116.068 268.099 117.173C268.099 118.279 268.283 119.267 268.652 120.138C269.02 120.976 269.506 121.696 270.109 122.299C270.712 122.869 271.399 123.304 272.17 123.606C272.94 123.907 273.727 124.058 274.531 124.058ZM304.321 104.309C306.23 104.309 307.972 104.644 309.547 105.314C311.155 105.95 312.529 106.855 313.668 108.027C314.84 109.166 315.745 110.54 316.381 112.148C317.051 113.756 317.386 115.515 317.386 117.425C317.386 119.334 317.051 121.093 316.381 122.701C315.745 124.309 314.84 125.699 313.668 126.872C312.529 128.011 311.155 128.916 309.547 129.586C307.972 130.222 306.23 130.54 304.321 130.54C302.411 130.54 300.652 130.222 299.044 129.586C297.47 128.916 296.096 128.011 294.924 126.872C293.785 125.699 292.88 124.309 292.21 122.701C291.573 121.093 291.255 119.334 291.255 117.425C291.255 115.515 291.573 113.756 292.21 112.148C292.88 110.54 293.785 109.166 294.924 108.027C296.096 106.855 297.47 105.95 299.044 105.314C300.652 104.644 302.411 104.309 304.321 104.309ZM304.321 124.46C305.158 124.46 305.962 124.309 306.733 124.008C307.537 123.673 308.24 123.204 308.843 122.601C309.447 121.997 309.916 121.26 310.251 120.389C310.619 119.518 310.803 118.53 310.803 117.425C310.803 116.319 310.619 115.331 310.251 114.46C309.916 113.589 309.447 112.852 308.843 112.249C308.24 111.646 307.537 111.193 306.733 110.892C305.962 110.557 305.158 110.389 304.321 110.389C303.45 110.389 302.629 110.557 301.858 110.892C301.088 111.193 300.401 111.646 299.798 112.249C299.195 112.852 298.709 113.589 298.341 114.46C298.006 115.331 297.838 116.319 297.838 117.425C297.838 118.53 298.006 119.518 298.341 120.389C298.709 121.26 299.195 121.997 299.798 122.601C300.401 123.204 301.088 123.673 301.858 124.008C302.629 124.309 303.45 124.46 304.321 124.46ZM323.594 110.741H319.272V105.113H323.594V97.5749H330.177V105.113H336.207V110.741H330.177V120.289C330.177 120.858 330.227 121.394 330.327 121.897C330.461 122.366 330.696 122.768 331.031 123.103C331.5 123.639 332.17 123.907 333.041 123.907C333.611 123.907 334.063 123.857 334.398 123.756C334.733 123.622 335.051 123.455 335.353 123.254L337.212 129.033C336.441 129.401 335.604 129.669 334.699 129.837C333.828 130.038 332.857 130.138 331.785 130.138C330.545 130.138 329.423 129.954 328.418 129.586C327.446 129.184 326.626 128.648 325.956 127.978C324.381 126.47 323.594 124.326 323.594 121.545V110.741ZM365.911 130.54C363.7 130.54 361.706 130.088 359.931 129.184C358.155 128.246 356.631 126.972 355.358 125.364C354.118 123.756 353.163 121.863 352.493 119.686C351.823 117.475 351.488 115.096 351.488 112.55C351.488 110.004 351.823 107.642 352.493 105.465C353.163 103.253 354.118 101.344 355.358 99.7358C356.631 98.1277 358.155 96.8714 359.931 95.9669C361.706 95.0288 363.7 94.5598 365.911 94.5598C368.122 94.5598 370.115 95.0288 371.891 95.9669C373.666 96.8714 375.174 98.1277 376.413 99.7358C377.686 101.344 378.658 103.253 379.328 105.465C379.998 107.642 380.333 110.004 380.333 112.55C380.333 115.096 379.998 117.475 379.328 119.686C378.658 121.863 377.686 123.756 376.413 125.364C375.174 126.972 373.666 128.246 371.891 129.184C370.115 130.088 368.122 130.54 365.911 130.54ZM365.911 124.309C367.117 124.309 368.206 124.024 369.177 123.455C370.149 122.852 370.969 122.031 371.639 120.992C372.343 119.92 372.862 118.664 373.197 117.224C373.566 115.783 373.75 114.225 373.75 112.55C373.75 110.842 373.566 109.284 373.197 107.877C372.862 106.436 372.343 105.197 371.639 104.158C370.969 103.086 370.149 102.265 369.177 101.696C368.206 101.093 367.117 100.791 365.911 100.791C364.671 100.791 363.566 101.093 362.594 101.696C361.623 102.265 360.802 103.086 360.132 104.158C359.462 105.197 358.942 106.436 358.574 107.877C358.239 109.284 358.071 110.842 358.071 112.55C358.071 114.225 358.239 115.783 358.574 117.224C358.942 118.664 359.462 119.92 360.132 120.992C360.802 122.031 361.623 122.852 362.594 123.455C363.566 124.024 364.671 124.309 365.911 124.309ZM389.334 130.038C388.128 130.038 387.089 129.619 386.218 128.782C385.381 127.91 384.962 126.872 384.962 125.666C384.962 124.46 385.381 123.438 386.218 122.601C387.089 121.763 388.128 121.344 389.334 121.344C390.54 121.344 391.562 121.763 392.399 122.601C393.237 123.438 393.655 124.46 393.655 125.666C393.655 126.872 393.237 127.91 392.399 128.782C391.562 129.619 390.54 130.038 389.334 130.038ZM398.357 129.736V123.756C400.333 121.813 402.159 120.004 403.834 118.329C404.538 117.626 405.258 116.905 405.995 116.168C406.732 115.431 407.419 114.744 408.055 114.108C408.692 113.471 409.261 112.902 409.764 112.399C410.266 111.863 410.652 111.445 410.92 111.143C411.456 110.507 411.925 109.937 412.327 109.434C412.762 108.932 413.097 108.446 413.332 107.977C413.6 107.475 413.801 106.989 413.935 106.52C414.069 106.017 414.136 105.481 414.136 104.912C414.136 103.806 413.7 102.851 412.829 102.047C411.958 101.21 410.769 100.791 409.261 100.791C407.754 100.791 406.581 101.227 405.744 102.098C404.906 102.935 404.337 103.89 404.035 104.962L398.055 102.5C398.323 101.595 398.759 100.674 399.362 99.7358C399.965 98.7642 400.735 97.91 401.673 97.1729C402.611 96.4024 403.717 95.7826 404.99 95.3136C406.297 94.8111 407.754 94.5598 409.362 94.5598C411.104 94.5598 412.679 94.8278 414.086 95.3639C415.493 95.8664 416.682 96.5699 417.654 97.4744C418.625 98.379 419.379 99.451 419.915 100.691C420.451 101.897 420.719 103.203 420.719 104.61C420.719 106.754 420.183 108.731 419.111 110.54C418.072 112.316 416.799 113.974 415.292 115.515L410.97 119.837C409.831 120.976 408.541 122.249 407.101 123.656L407.302 123.957H421.221V129.736H398.357ZM446.38 125.364C444.806 125.096 443.365 124.594 442.058 123.857C440.785 123.12 439.68 122.199 438.742 121.093C437.837 119.987 437.134 118.714 436.631 117.274C436.129 115.8 435.877 114.225 435.877 112.55C435.877 110.875 436.129 109.317 436.631 107.877C437.134 106.403 437.837 105.113 438.742 104.007C439.68 102.902 440.785 101.98 442.058 101.243C443.365 100.506 444.806 100.004 446.38 99.7358V95.3639H450.903V99.6855C453.214 99.987 455.107 100.758 456.581 101.997C458.089 103.237 459.261 104.761 460.099 106.57L454.672 108.731C453.767 106.888 452.511 105.749 450.903 105.314V119.837C452.779 119.267 454.186 118.044 455.124 116.168L460.35 118.43C459.412 120.239 458.173 121.78 456.632 123.053C455.124 124.326 453.214 125.13 450.903 125.465V129.736H446.38V125.364ZM441.908 112.55C441.908 114.359 442.326 115.883 443.164 117.123C444.001 118.329 445.074 119.183 446.38 119.686V105.465C445.074 105.934 444.001 106.788 443.164 108.027C442.326 109.233 441.908 110.741 441.908 112.55Z" fill="#3182F6"/>
</g>
<defs>
<filter id="filter0_d_6232_2977" x="0.000171661" y="-0.000840425" width="560.649" height="223.202" filterUnits="userSpaceOnUse" color-interpolation-filters="sRGB">
<feFlood flood-opacity="0" result="BackgroundImageFix"/>
<feColorMatrix in="SourceAlpha" type="matrix" values="0 0 0 0 0 0 0 0 0 0 0 0 0 0 0 0 0 0 127 0" result="hardAlpha"/>
<feOffset dy="2.71041"/>
<feGaussianBlur stdDeviation="21.4123"/>
<feComposite in2="hardAlpha" operator="out"/>
<feColorMatrix type="matrix" values="0 0 0 0 0 0 0 0 0 0 0 0 0 0 0 0 0 0 0.06 0"/>
<feBlend mode="normal" in2="BackgroundImageFix" result="effect1_dropShadow_6232_2977"/>
<feBlend mode="normal" in="SourceGraphic" in2="effect1_dropShadow_6232_2977" result="shape"/>
</filter>
</defs>
</svg>
