<svg width="561" height="224" viewBox="0 0 561 224" fill="none" xmlns="http://www.w3.org/2000/svg">
<g filter="url(#filter0_d_6232_3001)">
<rect x="42.8245" y="40.1133" width="475" height="137.553" rx="68.7767" fill="white"/>
<rect x="84.1584" y="80.6973" width="56.3084" height="57.0905" rx="28.1542" fill="#3182F6"/>
<path d="M109.978 103.298V111.707C109.978 111.869 110.071 111.974 110.257 112.021C111.141 112.137 112.002 112.195 112.839 112.195C114.723 112.195 116.154 111.788 117.131 110.974C118.131 110.136 118.631 108.95 118.631 107.415C118.631 104.321 116.7 102.774 112.839 102.774C112.002 102.774 111.141 102.832 110.257 102.949C110.071 102.995 109.978 103.112 109.978 103.298ZM107.117 124.791C106.582 124.791 106.116 124.593 105.721 124.198C105.349 123.802 105.163 123.337 105.163 122.802V101.483C105.163 100.925 105.349 100.425 105.721 99.9829C106.093 99.5409 106.558 99.2967 107.117 99.2501C109.094 99.064 111.001 98.971 112.839 98.971C116.328 98.971 118.945 99.6688 120.69 101.065C122.434 102.437 123.307 104.437 123.307 107.066C123.307 109.974 122.457 112.172 120.759 113.66C119.085 115.149 116.596 115.894 113.293 115.894C112.525 115.894 111.513 115.847 110.257 115.754C110.071 115.754 109.978 115.847 109.978 116.033V122.802C109.978 123.337 109.78 123.802 109.385 124.198C108.989 124.593 108.524 124.791 107.989 124.791H107.117Z" fill="white"/>
<path d="M177.226 113.002L165.115 93.7558H173.205L180.391 105.666H180.793L187.728 93.7558H195.919L184.01 113.002V129.736H177.226V113.002ZM205.975 104.309C207.885 104.309 209.627 104.644 211.201 105.314C212.81 105.95 214.183 106.855 215.322 108.027C216.495 109.166 217.399 110.54 218.036 112.148C218.706 113.756 219.041 115.515 219.041 117.425C219.041 119.334 218.706 121.093 218.036 122.701C217.399 124.309 216.495 125.699 215.322 126.872C214.183 128.011 212.81 128.916 211.201 129.586C209.627 130.222 207.885 130.54 205.975 130.54C204.066 130.54 202.307 130.222 200.699 129.586C199.124 128.916 197.751 128.011 196.578 126.872C195.439 125.699 194.535 124.309 193.864 122.701C193.228 121.093 192.91 119.334 192.91 117.425C192.91 115.515 193.228 113.756 193.864 112.148C194.535 110.54 195.439 109.166 196.578 108.027C197.751 106.855 199.124 105.95 200.699 105.314C202.307 104.644 204.066 104.309 205.975 104.309ZM205.975 124.46C206.813 124.46 207.617 124.309 208.387 124.008C209.191 123.673 209.895 123.204 210.498 122.601C211.101 121.997 211.57 121.26 211.905 120.389C212.274 119.518 212.458 118.53 212.458 117.425C212.458 116.319 212.274 115.331 211.905 114.46C211.57 113.589 211.101 112.852 210.498 112.249C209.895 111.646 209.191 111.193 208.387 110.892C207.617 110.557 206.813 110.389 205.975 110.389C205.104 110.389 204.283 110.557 203.513 110.892C202.742 111.193 202.056 111.646 201.453 112.249C200.85 112.852 200.364 113.589 199.995 114.46C199.66 115.331 199.493 116.319 199.493 117.425C199.493 118.53 199.66 119.518 199.995 120.389C200.364 121.26 200.85 121.997 201.453 122.601C202.056 123.204 202.742 123.673 203.513 124.008C204.283 124.309 205.104 124.46 205.975 124.46ZM240.061 126.52H239.659C238.888 127.76 237.85 128.748 236.543 129.485C235.237 130.189 233.746 130.54 232.071 130.54C228.955 130.54 226.627 129.586 225.086 127.676C223.578 125.766 222.824 123.22 222.824 120.038V105.113H229.407V119.234C229.407 121.009 229.793 122.333 230.563 123.204C231.367 124.041 232.523 124.46 234.03 124.46C234.935 124.46 235.722 124.276 236.392 123.907C237.096 123.505 237.682 122.986 238.151 122.349C238.654 121.679 239.022 120.909 239.257 120.038C239.525 119.133 239.659 118.178 239.659 117.173V105.113H246.242V129.736H240.061V126.52ZM274.28 141.395C272.538 141.395 270.98 141.16 269.606 140.691C268.266 140.256 267.094 139.67 266.089 138.932C265.084 138.229 264.246 137.442 263.576 136.571C262.906 135.7 262.42 134.829 262.119 133.958L268.4 131.445C268.869 132.751 269.64 133.757 270.712 134.46C271.784 135.197 272.973 135.566 274.28 135.566C276.357 135.566 277.998 134.912 279.204 133.606C280.41 132.333 281.013 130.54 281.013 128.229V126.52H280.611C279.841 127.592 278.819 128.447 277.546 129.083C276.307 129.686 274.832 129.988 273.124 129.988C271.65 129.988 270.209 129.686 268.802 129.083C267.429 128.48 266.206 127.626 265.134 126.52C264.062 125.381 263.191 124.024 262.521 122.45C261.851 120.875 261.516 119.116 261.516 117.173C261.516 115.23 261.851 113.471 262.521 111.897C263.191 110.289 264.062 108.932 265.134 107.826C266.206 106.687 267.429 105.816 268.802 105.213C270.209 104.61 271.65 104.309 273.124 104.309C274.832 104.309 276.307 104.627 277.546 105.264C278.819 105.867 279.841 106.704 280.611 107.776H281.013V105.113H287.295V127.978C287.295 130.055 286.977 131.914 286.34 133.555C285.704 135.231 284.816 136.638 283.677 137.777C282.538 138.949 281.164 139.837 279.556 140.44C277.982 141.077 276.223 141.395 274.28 141.395ZM274.531 124.058C275.335 124.058 276.122 123.907 276.893 123.606C277.697 123.304 278.4 122.869 279.003 122.299C279.606 121.696 280.092 120.976 280.461 120.138C280.829 119.267 281.013 118.279 281.013 117.173C281.013 116.068 280.829 115.079 280.461 114.208C280.092 113.337 279.606 112.617 279.003 112.048C278.4 111.445 277.697 110.992 276.893 110.691C276.122 110.389 275.335 110.238 274.531 110.238C273.727 110.238 272.94 110.389 272.169 110.691C271.399 110.992 270.712 111.445 270.109 112.048C269.506 112.651 269.02 113.388 268.651 114.259C268.283 115.096 268.099 116.068 268.099 117.173C268.099 118.279 268.283 119.267 268.651 120.138C269.02 120.976 269.506 121.696 270.109 122.299C270.712 122.869 271.399 123.304 272.169 123.606C272.94 123.907 273.727 124.058 274.531 124.058ZM304.32 104.309C306.23 104.309 307.972 104.644 309.547 105.314C311.155 105.95 312.528 106.855 313.667 108.027C314.84 109.166 315.744 110.54 316.381 112.148C317.051 113.756 317.386 115.515 317.386 117.425C317.386 119.334 317.051 121.093 316.381 122.701C315.744 124.309 314.84 125.699 313.667 126.872C312.528 128.011 311.155 128.916 309.547 129.586C307.972 130.222 306.23 130.54 304.32 130.54C302.411 130.54 300.652 130.222 299.044 129.586C297.469 128.916 296.096 128.011 294.923 126.872C293.784 125.699 292.88 124.309 292.21 122.701C291.573 121.093 291.255 119.334 291.255 117.425C291.255 115.515 291.573 113.756 292.21 112.148C292.88 110.54 293.784 109.166 294.923 108.027C296.096 106.855 297.469 105.95 299.044 105.314C300.652 104.644 302.411 104.309 304.32 104.309ZM304.32 124.46C305.158 124.46 305.962 124.309 306.732 124.008C307.536 123.673 308.24 123.204 308.843 122.601C309.446 121.997 309.915 121.26 310.25 120.389C310.619 119.518 310.803 118.53 310.803 117.425C310.803 116.319 310.619 115.331 310.25 114.46C309.915 113.589 309.446 112.852 308.843 112.249C308.24 111.646 307.536 111.193 306.732 110.892C305.962 110.557 305.158 110.389 304.32 110.389C303.449 110.389 302.628 110.557 301.858 110.892C301.087 111.193 300.401 111.646 299.798 112.249C299.195 112.852 298.709 113.589 298.34 114.46C298.005 115.331 297.838 116.319 297.838 117.425C297.838 118.53 298.005 119.518 298.34 120.389C298.709 121.26 299.195 121.997 299.798 122.601C300.401 123.204 301.087 123.673 301.858 124.008C302.628 124.309 303.449 124.46 304.32 124.46ZM323.593 110.741H319.271V105.113H323.593V97.5749H330.176V105.113H336.206V110.741H330.176V120.289C330.176 120.858 330.226 121.394 330.327 121.897C330.461 122.366 330.695 122.768 331.03 123.103C331.5 123.639 332.17 123.907 333.041 123.907C333.61 123.907 334.062 123.857 334.397 123.756C334.732 123.622 335.051 123.455 335.352 123.254L337.212 129.033C336.441 129.401 335.603 129.669 334.699 129.837C333.828 130.038 332.856 130.138 331.784 130.138C330.545 130.138 329.422 129.954 328.417 129.586C327.446 129.184 326.625 128.648 325.955 127.978C324.38 126.47 323.593 124.326 323.593 121.545V110.741ZM365.91 130.54C363.699 130.54 361.706 130.088 359.93 129.184C358.155 128.246 356.63 126.972 355.357 125.364C354.118 123.756 353.163 121.863 352.493 119.686C351.823 117.475 351.488 115.096 351.488 112.55C351.488 110.004 351.823 107.642 352.493 105.465C353.163 103.253 354.118 101.344 355.357 99.7358C356.63 98.1277 358.155 96.8714 359.93 95.9669C361.706 95.0288 363.699 94.5598 365.91 94.5598C368.121 94.5598 370.115 95.0288 371.89 95.9669C373.666 96.8714 375.173 98.1277 376.413 99.7358C377.686 101.344 378.657 103.253 379.328 105.465C379.998 107.642 380.333 110.004 380.333 112.55C380.333 115.096 379.998 117.475 379.328 119.686C378.657 121.863 377.686 123.756 376.413 125.364C375.173 126.972 373.666 128.246 371.89 129.184C370.115 130.088 368.121 130.54 365.91 130.54ZM365.91 124.309C367.116 124.309 368.205 124.024 369.177 123.455C370.148 122.852 370.969 122.031 371.639 120.992C372.342 119.92 372.862 118.664 373.197 117.224C373.565 115.783 373.75 114.225 373.75 112.55C373.75 110.842 373.565 109.284 373.197 107.877C372.862 106.436 372.342 105.197 371.639 104.158C370.969 103.086 370.148 102.265 369.177 101.696C368.205 101.093 367.116 100.791 365.91 100.791C364.671 100.791 363.565 101.093 362.594 101.696C361.622 102.265 360.801 103.086 360.131 104.158C359.461 105.197 358.942 106.436 358.573 107.877C358.238 109.284 358.071 110.842 358.071 112.55C358.071 114.225 358.238 115.783 358.573 117.224C358.942 118.664 359.461 119.92 360.131 120.992C360.801 122.031 361.622 122.852 362.594 123.455C363.565 124.024 364.671 124.309 365.91 124.309ZM389.333 130.038C388.127 130.038 387.089 129.619 386.218 128.782C385.38 127.91 384.961 126.872 384.961 125.666C384.961 124.46 385.38 123.438 386.218 122.601C387.089 121.763 388.127 121.344 389.333 121.344C390.539 121.344 391.561 121.763 392.399 122.601C393.236 123.438 393.655 124.46 393.655 125.666C393.655 126.872 393.236 127.91 392.399 128.782C391.561 129.619 390.539 130.038 389.333 130.038ZM410.266 130.54C408.959 130.54 407.653 130.356 406.346 129.988C405.073 129.619 403.884 129.05 402.778 128.279C401.673 127.508 400.701 126.554 399.864 125.415C399.06 124.242 398.457 122.852 398.055 121.244L404.035 118.932C404.403 120.607 405.107 121.947 406.145 122.952C407.217 123.957 408.574 124.46 410.216 124.46C411.02 124.46 411.757 124.326 412.427 124.058C413.13 123.756 413.733 123.354 414.236 122.852C414.772 122.349 415.174 121.763 415.442 121.093C415.743 120.389 415.894 119.619 415.894 118.781C415.894 117.977 415.743 117.24 415.442 116.57C415.174 115.867 414.789 115.264 414.286 114.761C413.784 114.225 413.181 113.823 412.477 113.555C411.807 113.254 411.053 113.103 410.216 113.103C409.177 113.103 408.256 113.337 407.452 113.806C406.648 114.242 405.961 114.795 405.392 115.465L399.009 112.55L401.02 95.3639H420.367V101.143H406.497L405.191 109.183L405.593 109.284C406.263 108.714 407.083 108.228 408.055 107.826C409.026 107.424 410.199 107.223 411.573 107.223C413.013 107.223 414.387 107.508 415.693 108.078C417 108.614 418.156 109.384 419.161 110.389C420.166 111.394 420.97 112.617 421.573 114.058C422.176 115.465 422.477 117.039 422.477 118.781C422.477 120.49 422.176 122.064 421.573 123.505C420.97 124.946 420.115 126.185 419.01 127.224C417.938 128.262 416.648 129.083 415.14 129.686C413.666 130.256 412.042 130.54 410.266 130.54ZM447.852 125.364C446.277 125.096 444.837 124.594 443.53 123.857C442.257 123.12 441.152 122.199 440.214 121.093C439.309 119.987 438.605 118.714 438.103 117.274C437.6 115.8 437.349 114.225 437.349 112.55C437.349 110.875 437.6 109.317 438.103 107.877C438.605 106.403 439.309 105.113 440.214 104.007C441.152 102.902 442.257 101.98 443.53 101.243C444.837 100.506 446.277 100.004 447.852 99.7358V95.3639H452.375V99.6855C454.686 99.987 456.579 100.758 458.053 101.997C459.561 103.237 460.733 104.761 461.571 106.57L456.143 108.731C455.239 106.888 453.983 105.749 452.375 105.314V119.837C454.251 119.267 455.658 118.044 456.596 116.168L461.822 118.43C460.884 120.239 459.644 121.78 458.103 123.053C456.596 124.326 454.686 125.13 452.375 125.465V129.736H447.852V125.364ZM443.379 112.55C443.379 114.359 443.798 115.883 444.636 117.123C445.473 118.329 446.545 119.183 447.852 119.686V105.465C446.545 105.934 445.473 106.788 444.636 108.027C443.798 109.233 443.379 110.741 443.379 112.55Z" fill="#3182F6"/>
</g>
<defs>
<filter id="filter0_d_6232_3001" x="-7.24792e-05" y="-0.000840425" width="560.649" height="223.202" filterUnits="userSpaceOnUse" color-interpolation-filters="sRGB">
<feFlood flood-opacity="0" result="BackgroundImageFix"/>
<feColorMatrix in="SourceAlpha" type="matrix" values="0 0 0 0 0 0 0 0 0 0 0 0 0 0 0 0 0 0 127 0" result="hardAlpha"/>
<feOffset dy="2.71041"/>
<feGaussianBlur stdDeviation="21.4123"/>
<feComposite in2="hardAlpha" operator="out"/>
<feColorMatrix type="matrix" values="0 0 0 0 0 0 0 0 0 0 0 0 0 0 0 0 0 0 0.06 0"/>
<feBlend mode="normal" in2="BackgroundImageFix" result="effect1_dropShadow_6232_3001"/>
<feBlend mode="normal" in="SourceGraphic" in2="effect1_dropShadow_6232_3001" result="shape"/>
</filter>
</defs>
</svg>
